<?xml version="1.0" standalone="no"?>
<!DOCTYPE svg PUBLIC "-//W3C//DTD SVG 20010904//EN"
 "http://www.w3.org/TR/2001/REC-SVG-20010904/DTD/svg10.dtd">
<svg version="1.0" xmlns="http://www.w3.org/2000/svg"
 width="1067.000000pt" height="1067.000000pt" viewBox="0 0 1067.000000 1067.000000"
 preserveAspectRatio="xMidYMid meet">
<metadata>
Created by potrace 1.14, written by Peter Selinger 2001-2017
</metadata>
<g transform="translate(0.000000,1067.000000) scale(0.100000,-0.100000)"
fill="#000000" stroke="none">
<path d="M2846 7632 c-2 -1 -14 -5 -27 -7 -49 -9 -109 -30 -109 -37 0 -4 -7
-8 -15 -8 -8 0 -15 -5 -15 -11 0 -5 -4 -7 -10 -4 -5 3 -10 2 -10 -4 0 -5 -9
-13 -20 -16 -11 -4 -18 -10 -15 -15 3 -5 -4 -11 -15 -15 -11 -4 -18 -11 -15
-16 4 -5 0 -9 -8 -9 -7 0 -20 -11 -27 -25 -7 -14 -15 -23 -17 -21 -6 5 -163
-155 -163 -166 0 -5 -4 -7 -9 -4 -5 3 -11 0 -14 -8 -6 -15 -47 -11 -47 5 0 5
-9 9 -20 9 -11 0 -20 4 -20 8 0 9 -19 11 -127 13 -44 1 -87 -2 -95 -7 -7 -5
-15 -9 -18 -9 -17 -3 -56 -19 -66 -29 -6 -6 -22 -18 -34 -26 -13 -8 -102 -94
-199 -190 -163 -162 -218 -224 -224 -253 -1 -7 -6 -15 -10 -18 -5 -3 -10 -15
-12 -25 -2 -10 -4 -19 -5 -19 -1 0 -4 -9 -6 -20 -10 -37 -4 -180 7 -180 1 0 3
-9 5 -20 1 -11 5 -31 8 -45 13 -56 19 -86 18 -102 0 -10 4 -18 9 -18 6 0 9 -6
6 -12 -2 -7 -1 -23 4 -34 4 -12 11 -41 14 -64 3 -23 11 -54 16 -69 6 -14 10
-27 10 -28 -1 -2 0 -6 0 -10 1 -5 1 -16 0 -25 -1 -10 2 -18 6 -18 5 0 9 -10
10 -22 1 -13 4 -34 8 -48 3 -14 9 -38 12 -55 3 -16 10 -33 15 -36 6 -4 6 -9
-2 -14 -8 -5 -9 -10 -2 -14 6 -3 13 -20 16 -36 2 -17 5 -31 6 -32 2 -2 3 -6 4
-10 2 -5 8 -28 16 -53 7 -25 14 -49 16 -55 1 -5 7 -23 14 -40 6 -16 11 -31 11
-32 -1 -2 10 -28 24 -59 14 -31 23 -60 20 -64 -3 -4 2 -10 10 -14 8 -3 15 -12
15 -21 0 -8 5 -15 10 -15 6 0 9 -4 8 -9 -4 -11 69 -80 76 -73 4 3 6 1 6 -5 0
-25 132 -43 200 -27 14 3 31 6 38 6 6 1 12 5 12 10 0 5 4 7 9 3 5 -3 15 0 23
7 7 7 19 14 27 16 7 1 20 9 28 17 8 8 19 15 24 15 6 0 8 4 5 9 -6 9 22 26 37
23 4 -1 7 5 7 14 0 8 5 12 10 9 6 -3 10 -1 10 5 0 14 127 139 135 132 3 -3 11
-7 18 -8 7 -2 23 -6 37 -9 38 -10 93 -11 113 -2 10 5 17 4 17 -3 0 -7 8 -5 21
4 12 8 28 12 35 9 8 -3 14 0 14 6 0 6 5 11 11 11 22 0 104 65 195 156 61 61
99 92 107 87 7 -4 15 -8 20 -9 4 -1 8 -2 10 -3 21 -17 166 -18 177 -2 4 7 10
12 14 11 15 -4 66 12 66 21 0 5 11 11 25 15 14 3 25 12 25 19 0 7 8 12 18 10
9 -1 16 -8 14 -14 -1 -6 1 -11 6 -11 4 0 18 -20 32 -44 13 -25 28 -43 32 -40
4 3 8 1 8 -3 0 -13 77 -93 88 -93 5 0 12 -7 16 -15 3 -8 12 -15 21 -15 8 0 15
-7 15 -16 0 -8 5 -12 10 -9 6 3 10 1 10 -4 0 -6 9 -11 20 -11 11 0 20 -4 20
-8 0 -5 24 -18 53 -29 28 -12 61 -24 72 -29 11 -4 25 -9 30 -10 6 -1 12 -3 15
-4 16 -6 51 -10 97 -13 29 -1 53 -4 53 -7 0 -5 45 -3 115 5 22 3 57 7 79 9 21
2 41 8 45 12 3 5 11 9 16 10 18 1 70 17 75 23 3 3 31 19 63 35 32 15 61 35 64
42 3 8 11 14 19 14 8 0 14 5 14 10 0 6 6 9 13 8 6 -2 11 2 10 8 -1 7 9 15 24
18 14 4 23 9 21 12 -7 6 82 94 95 94 6 0 7 3 4 7 -4 3 5 15 20 25 16 10 24 18
19 18 -5 0 1 9 14 20 13 11 26 20 29 20 3 0 15 14 26 30 11 16 26 30 33 30 6
0 12 4 12 9 0 9 68 81 77 81 2 0 -13 -33 -35 -72 -37 -68 -45 -91 -56 -160 -3
-15 -7 -32 -11 -38 -3 -5 -2 -10 3 -10 5 0 8 -10 7 -22 -2 -29 24 -110 39
-120 7 -5 7 -8 1 -8 -5 0 -2 -5 8 -11 9 -6 15 -14 12 -20 -4 -5 -2 -9 3 -9 4
0 18 -9 30 -20 12 -12 22 -17 22 -13 0 4 6 0 13 -9 6 -9 21 -18 32 -20 11 -2
23 -7 26 -11 3 -4 31 -9 62 -10 31 -1 57 -6 57 -10 0 -5 5 -5 11 -1 12 7 74
14 146 17 24 1 43 4 43 8 0 3 10 5 23 6 31 1 131 11 137 13 3 1 13 1 24 0 12
-1 16 3 11 10 -6 9 -2 9 14 1 16 -9 21 -9 21 1 0 9 3 9 10 -2 5 -8 10 -10 10
-4 0 6 12 11 28 11 38 1 132 12 162 19 14 3 45 8 70 10 52 4 65 7 103 22 16 7
33 12 38 12 5 0 9 5 9 10 0 6 6 10 14 10 8 0 16 5 18 11 2 5 19 -5 38 -24 46
-44 96 -78 104 -70 3 3 6 1 6 -5 0 -7 5 -12 11 -12 5 0 7 5 3 11 -3 6 4 4 17
-4 25 -15 95 -18 117 -4 7 5 12 4 12 -3 0 -8 6 -8 20 0 11 6 20 8 20 5 0 -13
97 49 131 83 20 21 46 45 57 54 20 16 21 16 26 0 7 -21 96 -72 125 -72 12 0
21 -4 21 -8 0 -7 29 -13 78 -15 12 -1 22 -4 22 -7 0 -4 19 -7 42 -8 23 -1 44
-5 47 -10 3 -4 17 -8 31 -9 63 -5 80 -8 80 -13 0 -3 15 -6 33 -8 42 -4 72 -9
72 -11 0 -11 160 -17 210 -8 11 2 31 10 45 17 14 8 29 13 33 12 5 -1 6 2 2 8
-3 5 -2 10 4 10 6 0 38 27 71 59 64 63 75 66 114 29 10 -9 23 -15 28 -12 4 3
8 0 8 -6 0 -6 6 -10 13 -9 6 1 19 -1 27 -4 42 -17 118 -13 181 12 13 5 29 9
34 10 6 1 20 12 33 23 12 12 22 19 22 15 0 -3 33 27 73 67 39 40 78 71 85 69
6 -3 10 -9 6 -14 -3 -5 0 -9 6 -9 6 0 9 -4 6 -9 -3 -5 1 -12 10 -15 8 -3 12
-10 9 -16 -3 -5 -1 -10 4 -10 6 0 11 -7 11 -15 0 -8 5 -15 10 -15 6 0 10 -7
10 -15 0 -8 5 -15 12 -15 6 0 8 -3 5 -6 -4 -4 5 -20 18 -36 14 -16 25 -34 25
-39 0 -6 5 -7 10 -4 6 3 10 0 10 -8 0 -14 72 -80 85 -77 3 0 13 -6 21 -15 9
-8 19 -13 24 -10 5 3 10 0 12 -6 2 -6 34 -10 78 -10 81 0 106 3 116 14 4 4 16
7 26 7 10 0 18 5 18 10 0 6 7 10 15 10 9 0 108 92 222 205 113 113 202 205
199 205 -4 0 0 10 9 23 8 13 12 27 8 30 -3 4 -2 7 4 7 5 0 10 6 11 13 11 80
11 120 1 165 -7 28 -16 52 -21 52 -4 0 -8 7 -8 15 0 14 -19 54 -30 65 -3 3
-19 26 -35 52 -17 27 -33 48 -37 48 -4 0 -5 8 -1 18 3 9 3 14 -2 10 -4 -4 -17
9 -28 30 -11 20 -25 40 -31 44 -6 4 -7 8 -3 8 5 0 2 7 -5 15 -30 34 -39 46
-48 69 -8 23 4 38 165 201 96 96 175 180 175 186 0 5 5 7 12 3 6 -4 8 -3 4 4
-3 6 -1 16 6 24 7 7 15 20 16 28 2 8 6 24 10 35 10 36 10 130 0 143 -7 8 -7
12 1 12 8 0 7 5 -3 15 -8 8 -18 25 -22 37 -8 28 -76 98 -94 98 -7 0 -10 3 -7
7 8 7 -47 35 -75 38 -10 2 -19 4 -20 5 -9 8 -108 4 -133 -5 -57 -21 -115 -50
-115 -57 0 -4 -18 -17 -40 -29 -22 -13 -40 -26 -40 -31 0 -4 -4 -8 -10 -8 -10
0 -37 -20 -70 -51 -25 -24 -35 -11 -35 44 0 26 -3 47 -7 47 -4 0 -5 6 -2 14 3
8 1 17 -5 21 -6 3 -11 14 -11 24 0 20 -90 121 -108 121 -7 0 -12 5 -12 10 0 6
-8 10 -18 10 -10 0 -28 7 -40 16 -13 9 -22 11 -22 4 0 -7 -5 -8 -12 -3 -18 11
-128 12 -128 0 0 -5 -7 -7 -15 -4 -8 4 -17 2 -20 -4 -4 -5 -11 -7 -16 -4 -5 4
-9 2 -9 -4 0 -5 -9 -13 -20 -16 -12 -4 -41 -26 -65 -50 -24 -23 -46 -40 -49
-38 -2 2 -7 -4 -10 -14 -4 -10 -17 -26 -30 -35 -23 -17 -25 -17 -60 7 -20 13
-36 22 -36 18 0 -3 -6 -1 -12 5 -7 5 -33 13 -58 18 -47 8 -55 10 -67 14 -5 1
-12 2 -17 1 -4 -1 -14 3 -21 9 -10 8 -15 8 -20 0 -5 -8 -11 -8 -20 0 -7 5 -31
13 -54 16 -49 7 -76 12 -76 14 0 1 -11 4 -25 6 -52 10 -65 13 -65 14 0 3 -46
9 -82 11 -18 1 -33 6 -33 11 0 5 -6 6 -12 1 -7 -4 -33 -9 -58 -11 -67 -4 -70
-5 -70 -12 0 -4 -13 -13 -29 -20 -16 -6 -55 -37 -87 -69 l-57 -57 -55 53 c-30
29 -59 50 -63 47 -5 -3 -9 -1 -9 4 0 9 -41 22 -90 27 -14 2 -29 4 -35 5 -5 1
-12 1 -15 0 -3 -1 -21 -4 -40 -6 -19 -2 -41 -5 -47 -6 -7 -1 -13 -5 -13 -10 0
-4 -3 -7 -7 -6 -13 3 -63 -25 -63 -34 0 -5 -4 -7 -9 -3 -5 3 -12 -4 -16 -15
-3 -11 -10 -20 -14 -20 -4 0 -64 -56 -133 -125 -70 -69 -129 -125 -132 -125
-2 0 -2 10 0 23 10 42 11 97 1 97 -6 0 -5 5 1 13 7 8 5 23 -8 49 -10 20 -16
39 -14 41 9 9 -104 119 -115 113 -6 -4 -11 -3 -11 2 0 12 -49 34 -60 27 -5 -3
-11 -1 -14 4 -8 13 -158 5 -301 -15 -27 -4 -60 -8 -72 -8 -13 0 -23 -2 -23 -5
0 -4 -17 -6 -38 -7 -20 -1 -57 -4 -82 -8 -25 -4 -64 -8 -87 -9 -24 -1 -43 -4
-43 -7 0 -3 -20 -5 -45 -5 -25 1 -45 -2 -45 -6 0 -4 -11 -6 -25 -3 -14 2 -25
0 -25 -5 0 -6 -6 -8 -13 -5 -17 6 -95 -27 -126 -55 -25 -22 -51 -28 -51 -11 0
6 -7 10 -15 10 -8 0 -15 5 -15 10 0 6 -9 10 -20 10 -11 0 -20 5 -20 11 0 6 -6
9 -14 6 -8 -3 -17 -3 -20 1 -13 13 -107 18 -155 8 -33 -7 -111 -46 -111 -56 0
-4 -11 -11 -25 -14 -14 -4 -24 -10 -23 -14 3 -9 -180 -192 -193 -192 -6 0 -8
-3 -6 -7 2 -5 -27 -39 -65 -76 l-69 -68 5 48 c3 26 5 48 6 48 1 0 3 9 5 20 21
121 24 174 12 199 -7 14 -6 16 4 11 7 -5 10 -4 6 2 -14 22 -30 69 -28 80 1 6
-8 18 -19 26 -11 7 -18 16 -17 18 4 4 -58 66 -68 69 -3 1 -14 4 -25 7 -11 3
-20 10 -20 15 0 6 -7 8 -15 5 -8 -4 -17 -2 -20 3 -3 4 -13 7 -23 6 -9 -2 -20
2 -24 8 -5 8 -8 7 -8 -2 0 -9 -5 -10 -19 -2 -14 7 -21 6 -24 -3 -4 -9 -6 -8
-6 2 -1 11 -4 11 -16 1 -12 -10 -15 -10 -15 1 -1 9 -4 8 -11 -4 -6 -9 -15 -15
-20 -11 -16 9 -90 -31 -134 -73 -7 -7 -16 -9 -20 -5 -4 4 -5 0 -3 -8 2 -9 -3
-14 -12 -12 -8 2 -12 0 -8 -4 4 -4 -14 -27 -40 -52 -26 -25 -46 -50 -44 -55 2
-5 -5 -6 -15 -3 -9 4 -15 4 -11 1 3 -4 -39 -53 -95 -110 -56 -57 -109 -114
-118 -126 -15 -22 -17 -22 -33 -6 -10 9 -14 17 -9 17 4 0 0 5 -9 11 -10 5 -18
17 -18 24 0 8 -5 15 -11 15 -5 0 -8 4 -5 8 3 5 -4 15 -15 22 -10 8 -19 18 -19
23 0 5 -6 15 -12 22 -27 30 -38 44 -38 50 0 3 -5 11 -10 18 -6 7 -28 37 -50
67 -22 30 -44 61 -50 68 -6 6 -7 12 -3 12 4 0 -3 7 -15 16 -12 8 -22 20 -22
25 0 29 -124 109 -168 109 -10 0 -22 3 -26 7 -6 7 -85 11 -90 5z m3230 -809
c-3 -10 -8 -36 -11 -58 -4 -22 -8 -51 -11 -65 -7 -36 -15 -102 -15 -123 0 -9
-3 -15 -7 -13 -4 2 -7 -8 -6 -22 2 -37 -5 -50 -23 -48 -8 1 -36 -1 -61 -5 -62
-9 -75 -4 -59 24 7 12 16 25 20 28 5 3 9 12 11 20 1 8 9 25 18 39 9 14 24 42
34 63 10 20 22 37 26 37 5 0 6 5 3 10 -3 6 -1 10 5 10 6 0 9 4 6 9 -4 5 -3 11
1 13 5 1 19 24 33 51 24 46 47 65 36 30z m-946 -239 c0 -9 -5 -12 -12 -8 -7 4
-8 3 -4 -4 4 -6 -4 -29 -18 -51 -14 -21 -22 -42 -19 -45 4 -3 1 -6 -6 -6 -7 0
-9 -5 -6 -10 3 -6 -1 -13 -9 -16 -9 -3 -14 -10 -11 -14 3 -5 0 -12 -6 -15 -7
-5 -9 3 -5 24 13 68 24 132 25 143 1 7 21 12 54 15 9 1 17 -5 17 -13z"/>
<path d="M4735 5409 c-4 -5 -12 -9 -18 -8 -20 3 -67 -12 -67 -22 0 -5 -6 -9
-14 -9 -7 0 -85 -72 -172 -159 l-159 -159 -45 50 c-44 49 -161 148 -175 148
-3 0 -13 7 -22 15 -8 8 -19 13 -24 10 -5 -4 -9 -1 -9 4 0 6 -6 11 -12 11 -7 0
-26 7 -41 15 -15 8 -36 16 -45 17 -9 2 -19 6 -22 10 -13 17 -186 40 -285 38
-49 -1 -100 -2 -112 -2 -13 0 -23 -4 -23 -10 0 -5 -4 -7 -8 -4 -10 6 -122 -22
-137 -34 -5 -4 -19 -10 -30 -12 -11 -1 -22 -6 -25 -9 -3 -3 -26 -16 -53 -28
-27 -13 -44 -27 -40 -33 3 -6 1 -8 -4 -5 -10 6 -32 -9 -102 -68 -51 -44 -411
-408 -411 -417 0 -5 -4 -6 -10 -3 -5 3 -10 2 -10 -3 0 -5 -8 -18 -17 -30 -42
-49 -50 -60 -81 -110 -17 -29 -32 -59 -32 -67 0 -8 -4 -15 -9 -15 -10 0 -65
-154 -76 -215 -5 -22 -10 -47 -12 -55 -1 -8 -4 -36 -5 -62 -1 -25 -6 -44 -10
-42 -4 3 -4 -6 2 -20 5 -15 5 -28 0 -31 -5 -3 -5 -19 1 -37 6 -22 5 -34 -2
-39 -7 -4 -7 -9 -2 -12 5 -4 11 -23 12 -44 1 -35 7 -78 11 -78 1 0 3 -7 5 -16
1 -9 11 -43 20 -75 9 -33 16 -61 15 -63 -1 -2 2 -7 7 -10 4 -3 22 -32 38 -64
17 -32 38 -67 48 -77 9 -11 17 -22 17 -25 0 -19 160 -175 180 -175 6 0 10 -4
10 -9 0 -5 15 -14 33 -22 17 -7 34 -16 37 -19 12 -14 145 -68 185 -74 11 -2
38 -7 60 -12 22 -4 51 -9 65 -10 14 -1 26 -2 28 -4 6 -6 49 -3 61 5 9 5 12 4
7 -3 -6 -10 65 -9 128 2 23 4 37 -5 95 -64 37 -39 70 -67 73 -65 3 3 11 -1 18
-10 7 -8 20 -15 30 -15 9 0 20 -3 24 -7 12 -13 90 -17 156 -10 45 6 114 45
167 95 29 27 55 47 58 44 3 -3 5 0 5 6 0 13 218 232 231 232 5 0 9 -4 9 -9 0
-15 103 -87 180 -124 72 -35 166 -65 221 -71 15 -2 32 -6 38 -10 6 -4 11 -3
11 3 0 7 8 7 23 2 42 -15 181 -2 277 27 30 9 61 16 68 15 6 0 12 2 12 6 0 4
16 13 35 21 19 8 35 18 35 24 0 5 3 7 6 4 3 -4 22 5 41 18 20 13 40 24 45 24
5 0 6 5 3 10 -3 6 0 10 7 10 7 0 39 25 72 56 44 42 61 52 67 42 5 -7 7 -19 4
-25 -2 -7 -1 -13 3 -13 5 0 14 -16 21 -37 17 -45 89 -115 150 -145 37 -17 64
-22 136 -22 123 -1 160 19 322 179 69 69 128 124 130 121 2 -2 6 -28 8 -58 2
-30 10 -72 19 -92 8 -20 16 -40 18 -44 16 -44 127 -127 188 -140 52 -11 305 3
305 18 0 1 16 3 35 5 73 5 186 17 205 22 11 2 40 6 65 9 25 2 59 6 75 8 17 2
55 7 85 10 164 19 182 23 249 53 51 23 472 447 499 502 12 24 19 48 16 53 -3
4 -1 8 4 8 8 0 8 98 -1 145 -8 43 -20 75 -28 75 -5 0 -9 10 -9 22 0 12 -2 19
-5 16 -3 -3 -18 6 -34 21 -45 43 -70 61 -86 61 -7 0 -16 4 -19 8 -8 14 -103
18 -191 9 -27 -3 -83 -9 -123 -12 l-73 -7 28 53 c15 30 30 56 33 59 3 3 12 19
20 35 8 17 17 32 20 35 3 3 15 25 28 50 45 87 77 145 82 150 3 3 18 30 33 60
15 30 43 82 63 115 19 33 40 72 45 88 6 15 16 27 22 27 6 0 8 3 4 6 -3 4 0 21
7 38 24 59 12 266 -16 266 -4 0 -14 15 -23 33 -19 39 -83 88 -146 112 -65 24
-136 24 -294 -1 -16 -2 -50 -6 -75 -8 -25 -2 -65 -7 -90 -10 -25 -4 -63 -9
-85 -12 -22 -3 -53 -7 -70 -10 -16 -3 -52 -6 -80 -9 -27 -2 -50 -4 -50 -5 0
-1 -11 -3 -25 -5 -161 -16 -200 -27 -248 -69 -24 -21 -24 -21 -40 -1 -23 27
-99 86 -115 89 -6 1 -16 4 -22 8 -5 3 -30 9 -55 13 -124 21 -210 -9 -311 -107
-53 -51 -62 -56 -79 -45 -11 6 -20 15 -20 19 0 5 -7 8 -15 8 -8 0 -15 4 -15 9
0 8 -30 22 -75 37 -9 3 -40 9 -102 19 -13 2 -23 0 -23 -3 0 -4 -12 -7 -27 -6
-16 1 -34 -4 -42 -10 -8 -6 -17 -10 -20 -9 -20 5 -80 -35 -143 -96 -40 -39
-77 -71 -81 -71 -5 0 -6 -4 -3 -8 2 -4 -9 -17 -25 -27 -16 -11 -29 -26 -29
-33 0 -7 -4 -11 -8 -8 -4 2 -17 -9 -27 -25 -11 -16 -23 -29 -26 -29 -8 0 -109
-99 -109 -107 0 -7 -33 -32 -42 -33 -4 0 -5 6 -3 13 7 20 25 124 30 177 2 14
4 25 5 25 1 0 3 33 5 73 1 39 -1 72 -4 72 -4 0 -8 12 -9 27 -1 14 -9 35 -19
45 -9 10 -13 18 -10 18 4 0 -1 10 -11 21 -68 84 -147 123 -254 126 -43 1 -80
-2 -83 -8z m1825 -1064 c0 -6 -58 -114 -98 -185 -15 -25 -27 -48 -27 -52 0 -3
-3 -9 -6 -12 -3 -3 -5 8 -5 24 0 17 2 30 5 30 3 0 7 12 8 28 2 35 11 116 14
120 2 3 6 19 8 31 0 5 11 11 24 13 47 7 77 8 77 3z"/>
</g>
</svg>
