<?xml version="1.0" standalone="no"?>
<!DOCTYPE svg PUBLIC "-//W3C//DTD SVG 20010904//EN"
 "http://www.w3.org/TR/2001/REC-SVG-20010904/DTD/svg10.dtd">
<svg version="1.0" xmlns="http://www.w3.org/2000/svg"
 width="686.000000pt" height="686.000000pt" viewBox="0 0 686.000000 686.000000"
 preserveAspectRatio="xMidYMid meet">
<metadata>
Created by potrace 1.14, written by Peter Selinger 2001-2017
</metadata>
<g transform="translate(0.000000,686.000000) scale(0.100000,-0.100000)"
fill="#000000" stroke="none">
<path d="M3130 6505 c-242 -31 -578 -112 -785 -190 -521 -196 -1017 -555
-1381 -999 -269 -329 -471 -734 -574 -1149 -53 -216 -90 -483 -94 -664 0 -23
-4 -39 -10 -36 -5 4 -6 -6 -2 -23 4 -19 3 -24 -2 -15 -5 7 -12 9 -14 5 -3 -5
-3 -3 -2 4 2 6 -1 12 -7 12 -6 0 -9 -10 -7 -22 2 -15 9 -22 21 -22 9 1 17 -2
17 -7 0 -12 -27 -11 -53 2 -12 7 -19 8 -15 4 4 -5 3 -14 -3 -22 -9 -9 -8 -13
0 -13 6 0 11 5 11 11 0 5 5 7 12 3 7 -5 5 -11 -7 -21 -28 -19 -38 -16 -33 11
3 17 1 23 -8 19 -9 -3 -10 -11 -3 -30 9 -24 8 -25 -21 -21 -16 3 -30 1 -30 -3
0 -4 13 -9 30 -11 16 -3 30 -1 30 4 0 5 6 3 14 -4 15 -14 15 -25 2 -47 -6 -10
-5 -12 2 -7 21 13 13 -12 -10 -34 -12 -11 -28 -18 -35 -15 -11 3 -11 0 -2 -17
9 -16 13 -18 20 -7 5 8 9 10 9 4 0 -5 7 -1 15 9 8 11 17 17 21 14 7 -8 -27
-43 -41 -42 -22 2 -45 17 -45 30 0 8 -6 14 -12 14 -18 -1 -49 -26 -41 -33 3
-4 1 -7 -5 -7 -23 0 -21 19 5 41 16 12 21 20 12 16 -9 -3 -22 0 -29 6 -10 9
-11 9 -6 0 4 -8 2 -13 -6 -13 -9 0 -9 -3 2 -10 13 -8 11 -11 -7 -16 -13 -4
-23 -10 -23 -15 0 -5 7 -6 15 -3 13 6 20 -6 16 -29 -1 -4 8 -2 19 5 11 7 20
18 20 25 0 18 18 16 38 -3 19 -20 25 -44 10 -44 -6 0 -8 6 -5 14 4 9 0 13 -11
11 -9 -2 -25 -4 -34 -4 -10 -1 -18 -5 -18 -10 0 -5 11 -8 24 -5 20 3 24 0 23
-16 -2 -24 1 -24 -39 0 -18 11 -38 20 -45 20 -9 0 -12 -377 -13 -1580 l-1
-1580 3391 0 3390 0 0 1486 c0 1111 -3 1483 -12 1478 -7 -5 -8 -3 -2 7 12 20
14 38 3 45 -5 3 -9 10 -9 15 0 6 5 7 10 4 6 -3 10 3 10 14 0 25 -13 27 -33 6
-13 -13 -17 -12 -29 2 -7 10 -8 14 -1 10 6 -4 22 -2 36 4 21 10 24 17 22 57
-1 25 -7 48 -13 50 -7 2 -12 10 -12 17 0 7 -13 19 -30 27 -16 7 -30 17 -30 22
0 4 -7 6 -15 2 -8 -3 -21 1 -29 9 -13 13 -15 13 -21 -4 -3 -11 -13 -22 -23
-26 -9 -3 -13 -3 -9 1 9 10 -30 37 -43 29 -6 -3 -10 0 -10 8 0 10 7 14 23 10
18 -4 19 -3 7 6 -13 9 -12 11 5 9 11 -2 21 2 23 7 3 13 -17 14 -43 3 -18 -8
-18 -7 -4 4 20 16 24 29 10 37 -6 4 -12 69 -15 161 -10 319 -59 588 -167 920
-158 480 -462 928 -879 1293 -235 206 -435 338 -725 482 -354 175 -697 272
-1115 315 -133 13 -446 11 -570 -5z m580 -377 c529 -53 1076 -289 1510 -651
368 -307 670 -729 810 -1132 88 -254 150 -598 150 -837 l0 -97 -41 3 c-30 2
-39 0 -35 -10 3 -8 0 -11 -10 -7 -7 3 -14 10 -14 16 0 5 -9 2 -20 -8 -20 -18
-20 -18 -14 -1 6 17 2 18 -50 13 -32 -4 -56 -2 -56 4 0 5 -5 9 -11 9 -5 0 -7
-5 -3 -11 4 -7 0 -9 -14 -5 -11 4 -23 3 -26 -3 -4 -6 -19 -6 -39 0 -38 10 -87
9 -87 -3 0 -4 -5 -8 -11 -8 -5 0 -7 5 -4 10 10 16 -2 12 -21 -7 -17 -17 -18
-17 -11 0 4 11 2 17 -8 17 -20 0 -20 2 19 196 18 93 37 190 40 217 4 26 11 47
16 47 5 0 24 -19 44 -42 57 -66 60 -125 12 -230 -31 -68 -32 -72 -6 -98 71
-71 170 62 170 230 0 85 -31 151 -94 205 -26 22 -69 61 -95 88 -36 36 -55 47
-78 47 -38 0 -51 -15 -62 -71 -5 -24 -32 -157 -60 -296 -28 -138 -51 -254 -51
-256 0 -2 -21 6 -47 19 -81 41 -169 30 -242 -32 -33 -27 -37 -28 -147 -29 -63
0 -114 4 -114 9 0 5 -7 3 -16 -5 -12 -10 -20 -10 -35 -1 -10 7 -19 8 -19 4 0
-8 -234 -6 -257 3 -7 2 -14 -3 -15 -13 -6 -71 -15 282 -17 660 -1 434 -2 461
-22 512 -39 106 -133 183 -252 208 -63 13 -26 21 -837 -178 -682 -167 -698
-172 -754 -202 -67 -36 -113 -94 -136 -170 -19 -62 -20 -96 -20 -867 0 -514
-4 -806 -10 -810 -5 -3 -23 4 -39 16 -88 65 -267 32 -384 -71 -175 -154 -182
-410 -15 -587 87 -92 187 -134 321 -135 132 -2 236 42 341 141 65 62 96 109
128 197 20 55 22 81 26 362 4 291 4 302 23 302 26 0 88 -32 121 -63 40 -37 50
-92 46 -254 l-3 -144 139 3 138 3 22 75 c45 155 131 273 264 360 54 36 70 50
54 50 -13 0 -25 7 -28 15 -4 8 -10 12 -15 9 -5 -3 -9 0 -9 6 0 7 13 10 33 8
18 -2 31 -8 30 -15 -2 -6 6 -11 16 -10 11 1 17 7 14 14 -3 7 0 13 6 13 6 0 11
7 11 15 0 8 -4 15 -10 15 -5 0 -10 6 -10 14 0 15 23 27 43 22 6 -1 9 -1 5 1
-4 2 -4 11 -1 19 5 13 7 13 14 2 7 -10 9 -10 9 2 0 9 3 11 8 5 25 -35 87 -45
108 -17 12 15 13 13 14 -20 0 -35 -2 -38 -27 -39 -16 0 -37 -5 -48 -10 -17 -8
-17 -9 5 -4 14 2 37 5 53 5 l27 0 0 254 c0 140 -3 261 -6 270 -7 19 -74 23
-74 5 0 -8 -4 -8 -12 -2 -7 5 -46 11 -85 12 -57 1 -73 -1 -73 -12 0 -8 13 -17
29 -20 37 -8 64 -35 58 -58 -3 -11 -1 -19 4 -19 5 0 9 4 9 9 0 5 32 9 70 8 67
0 87 -8 55 -21 -8 -3 -15 -9 -14 -13 4 -27 -1 -35 -16 -23 -12 10 -16 10 -19
-1 -14 -43 -14 -44 -15 -26 -1 10 -9 17 -21 17 -10 0 -23 6 -27 13 -19 32 -56
27 -141 -19 -2 -1 -5 -18 -8 -37 -8 -67 -21 -87 -54 -87 -18 0 -29 -4 -25 -10
3 -6 -1 -7 -10 -3 -13 4 -14 8 -4 13 9 6 4 16 -17 36 -16 15 -24 24 -17 20 15
-8 27 10 13 19 -16 10 -57 -21 -75 -55 -15 -30 -6 -48 18 -34 10 6 10 4 0 -7
-14 -14 -18 -40 -5 -37 13 4 52 -13 52 -23 0 -6 -9 -5 -21 2 -17 9 -23 8 -30
-2 -6 -11 -9 -10 -15 4 -3 9 -14 17 -23 17 -15 1 -15 2 0 13 17 13 14 41 -3
31 -5 -3 -2 8 7 26 9 17 14 38 11 45 -3 8 2 15 10 17 11 2 9 6 -7 16 -11 8
-18 9 -15 3 4 -5 2 -13 -4 -16 -8 -5 -7 -11 1 -21 16 -20 7 -26 -25 -18 -17 4
-25 12 -22 20 3 7 0 11 -7 8 -14 -5 -19 -84 -6 -84 5 0 8 3 8 8 -1 4 -1 16 0
26 1 20 1 20 16 0 15 -19 15 -19 9 1 -6 17 -5 18 7 7 12 -11 11 -15 -4 -27
-17 -12 -17 -14 -1 -23 9 -5 14 -14 10 -21 -11 -16 -29 -13 -22 4 3 9 0 15 -9
15 -8 0 -15 -5 -15 -12 0 -6 -7 -3 -15 8 -12 16 -12 12 1 -23 14 -34 22 -42
49 -47 37 -7 56 -44 29 -59 -8 -4 -11 -13 -8 -19 4 -7 2 -8 -5 -4 -21 14 -50
-5 -62 -41 -11 -35 -12 -35 -55 -30 -41 4 -44 3 -44 -19 0 -24 -1 -24 -102
-24 -57 0 -98 4 -92 8 6 4 15 18 19 31 4 13 10 19 14 14 3 -6 27 -10 52 -10
34 -1 54 6 75 22 24 20 26 23 9 22 -12 -1 -21 5 -23 18 -4 16 -2 17 10 8 9 -8
19 -9 28 -3 12 8 10 10 -7 10 -12 0 -29 10 -37 22 -12 17 -16 19 -16 6 0 -9 5
-18 12 -20 9 -3 9 -6 0 -11 -7 -5 -17 4 -27 23 -15 29 -15 30 8 30 13 0 34 11
47 25 15 16 19 25 10 25 -9 0 -6 7 8 20 27 25 36 26 22 1 -5 -11 -10 -23 -10
-28 1 -4 7 3 14 17 8 13 12 32 11 42 -2 10 1 18 8 17 30 -4 57 2 57 12 0 7
-10 9 -24 5 -16 -4 -28 -1 -33 7 -9 16 -54 42 -65 39 -5 -1 -8 5 -8 14 0 9 -6
14 -12 11 -7 -2 -12 -10 -10 -17 1 -7 -3 -19 -10 -27 -11 -14 -10 -15 8 -9 18
5 21 2 20 -20 -1 -18 -7 -28 -18 -30 -10 -1 -18 2 -18 7 0 5 7 9 15 9 8 0 15
5 15 10 0 6 -8 10 -18 10 -9 0 -23 10 -31 21 -11 19 -11 21 3 16 20 -8 26 3
15 28 -6 16 -8 17 -8 3 -1 -18 -35 -33 -63 -29 -12 1 -18 -4 -18 -18 0 -12 -4
-21 -10 -21 -5 0 -10 -8 -11 -17 -1 -10 -6 -3 -11 15 -6 17 -16 32 -22 32 -6
0 -2 7 8 15 11 8 15 15 9 15 -7 0 -18 -7 -27 -15 -8 -8 -26 -19 -40 -25 -22
-8 -26 -7 -27 8 -4 74 -7 90 -19 112 l-14 25 -9 -33 c-11 -35 -2 -56 13 -32 8
12 10 11 11 -5 4 -71 3 -95 -6 -92 -16 5 -18 49 -4 58 18 11 6 21 -15 13 -20
-8 -23 -84 -3 -84 9 0 9 -2 0 -8 -7 -5 -12 -24 -12 -43 1 -18 0 -83 -1 -144
-2 -60 -7 57 -11 260 -5 276 -4 373 4 382 12 11 148 45 751 188 153 36 286 69
295 74 30 15 180 43 199 37 18 -6 19 -27 24 -434 3 -235 3 -531 0 -659 l-5
-232 -36 29 c-48 38 -116 54 -198 47 -174 -17 -319 -159 -353 -345 -30 -168
73 -358 238 -439 l76 -38 131 0 131 0 80 39 c139 69 264 223 294 362 6 27 12
159 14 294 2 135 4 246 5 248 1 2 22 -20 47 -50 75 -88 124 -214 124 -318 l0
-40 141 0 140 0 46 32 c76 52 138 71 228 72 67 0 90 -4 140 -27 32 -15 74 -39
91 -52 31 -24 39 -25 183 -25 83 0 151 -4 151 -8 0 -5 -6 -17 -14 -28 -12 -16
-29 -19 -125 -22 l-110 -4 11 -24 c17 -37 4 -39 -61 -10 -247 110 -491 -11
-491 -244 1 -102 48 -183 147 -251 55 -38 57 -59 3 -59 -106 0 -235 91 -289
203 -53 110 -50 225 9 335 l28 52 -108 0 -108 0 -6 -28 c-2 -15 -8 -49 -11
-77 -18 -144 -78 -267 -185 -379 -161 -170 -346 -245 -574 -234 -115 6 -171
23 -271 81 -89 52 -219 182 -262 262 -41 78 -72 190 -80 292 l-6 83 -128 0
c-97 0 -129 -3 -129 -12 0 -7 -4 -49 -9 -93 -19 -162 -76 -281 -189 -398 -148
-152 -342 -228 -547 -214 -165 12 -300 80 -429 218 -113 120 -166 243 -182
422 l-7 77 -437 0 -437 0 -11 25 c-7 14 -12 28 -12 30 0 3 206 6 457 7 l456 3
13 57 c24 104 78 195 173 289 50 51 108 97 139 113 28 14 52 27 52 29 0 1 -69
2 -152 1 -117 -1 -133 0 -66 5 64 4 91 11 107 25 15 14 24 16 34 8 8 -7 18 -7
27 -2 8 6 29 9 45 9 26 0 27 -2 10 -9 -15 -7 -16 -9 -4 -9 9 -1 22 5 28 13 9
11 4 15 -26 19 -22 4 -39 2 -41 -3 -5 -13 -42 -13 -42 0 0 6 10 11 23 11 l22
2 -23 4 c-12 2 -20 8 -17 13 3 5 17 4 31 -2 23 -11 28 -9 41 7 11 14 17 16 20
8 3 -7 18 -13 34 -13 16 0 29 -4 29 -8 0 -5 15 -7 33 -5 30 4 31 3 13 -11 -19
-16 -19 -16 6 -14 l27 2 1 268 1 268 -33 1 c-18 1 -62 3 -98 4 -41 2 -68 -1
-72 -9 -4 -6 -8 122 -9 284 -1 162 -3 313 -5 335 -1 22 -3 85 -3 141 -1 109
-9 129 -53 139 -19 5 -32 1 -47 -14 -20 -20 -21 -30 -21 -368 0 -192 -3 -384
-6 -429 l-7 -81 -36 13 c-48 17 -104 17 -146 0 -26 -11 -81 -14 -240 -12 -201
2 -207 2 -224 24 -63 85 -201 83 -257 -3 -14 -21 -24 -26 -52 -23 -27 2 -37
-2 -43 -17 -6 -17 -8 -17 -8 -2 -1 9 -6 17 -12 17 -5 0 -7 -4 -4 -10 11 -17
-10 -11 -33 10 -12 12 -22 16 -22 9 0 -6 -9 -9 -20 -6 -11 3 -20 1 -20 -5 0
-5 -4 -7 -8 -4 -4 2 -14 1 -22 -4 -17 -10 -50 15 -50 37 0 12 -3 12 -16 -1 -8
-9 -12 -21 -8 -27 4 -8 9 -7 15 2 6 10 9 10 9 2 0 -17 -17 -25 -25 -13 -4 6
-20 9 -36 6 -30 -4 -49 8 -27 17 9 4 10 6 1 6 -6 1 -15 -3 -18 -9 -3 -5 -10
-10 -15 -10 -13 0 -8 43 5 52 6 5 6 8 -2 8 -19 0 2 300 32 440 7 36 21 101 30
145 179 857 893 1629 1790 1933 413 140 744 181 1145 140z m547 -1770 c11 -13
23 -31 26 -41 8 -23 -8 -63 -30 -75 -28 -15 -1077 -262 -1175 -277 -39 -6 -49
-4 -67 14 -25 25 -27 51 -6 91 19 37 34 45 120 63 80 18 185 42 400 92 83 19
229 53 325 75 96 21 209 48 250 59 102 26 132 26 157 -1z m-3990 -1000 c-3 -8
-6 -5 -6 6 -1 11 2 17 5 13 3 -3 4 -12 1 -19z m29 -13 c1 -8 -2 -15 -7 -15 -5
0 -9 10 -9 22 0 23 12 17 16 -7z m1334 21 c0 -3 -4 -8 -10 -11 -5 -3 -10 -1
-10 4 0 6 5 11 10 11 6 0 10 -2 10 -4z m-1383 -23 c-4 -3 1 -11 10 -18 14 -11
14 -12 -3 -19 -10 -4 -15 -4 -11 0 4 4 0 16 -10 26 -15 17 -15 18 2 18 10 0
15 -3 12 -7z m798 -33 c-3 -5 -12 -7 -19 -4 -8 3 -17 0 -21 -5 -3 -6 -10 -9
-14 -7 -12 8 -6 -33 6 -45 12 -12 33 -4 33 12 0 6 -9 7 -21 4 -18 -6 -20 -5
-10 14 14 25 29 27 37 6 4 -8 11 -15 16 -15 6 0 5 6 -2 15 -14 16 -3 20 19 6
7 -5 11 -13 8 -18 -3 -5 3 -9 13 -9 10 0 16 6 13 13 -3 7 -9 13 -15 13 -5 0
-6 4 -3 10 4 6 -1 7 -11 3 -12 -4 -15 -3 -10 5 13 21 33 13 46 -17 17 -42 53
-72 110 -91 49 -17 52 -17 93 3 23 12 49 29 58 39 9 10 20 14 24 10 5 -4 5 -2
2 5 -4 6 -3 23 3 38 l10 26 160 -3 c156 -2 160 -3 153 -23 -14 -36 -7 -120 10
-146 22 -31 21 -42 -2 -27 -10 6 -17 18 -14 25 3 7 0 13 -6 13 -15 0 -14 -13
6 -55 14 -29 15 -37 3 -48 -10 -10 -12 -9 -7 6 8 21 -20 70 -35 61 -5 -3 -15
0 -23 6 -9 7 -15 8 -15 2 0 -5 7 -12 15 -16 8 -3 15 -10 15 -15 0 -6 -7 -8
-15 -5 -8 4 -22 1 -30 -6 -8 -7 -22 -9 -31 -6 -13 5 -14 3 -6 -6 8 -10 1 -14
-29 -15 -21 -1 -41 1 -44 6 -7 12 24 23 38 14 7 -3 8 -2 4 3 -13 14 -61 11
-68 -5 -8 -21 -69 -24 -90 -5 -10 9 -22 13 -28 9 -7 -3 -8 0 -5 9 7 18 20 21
29 6 4 -6 11 -8 16 -4 18 11 -1 22 -32 19 -27 -4 -29 -2 -24 18 5 17 4 19 -4
7 -10 -13 -12 -13 -21 0 -6 9 -10 10 -10 3 0 -6 7 -18 15 -27 20 -19 19 -52
-1 -60 -14 -6 -15 -4 -4 10 11 12 11 17 1 23 -7 5 -13 12 -14 17 -1 5 -11 8
-22 7 -11 -1 -14 1 -7 3 20 9 15 44 -7 44 -11 0 -21 4 -23 10 -1 5 -9 6 -16 1
-15 -9 -22 -61 -10 -77 6 -8 0 -10 -17 -6 -22 4 -23 6 -10 16 14 10 15 16 4
38 -13 30 -64 47 -82 29 -14 -14 -47 -15 -47 -1 0 5 6 7 14 4 8 -3 17 -1 21 5
3 6 17 11 31 11 13 0 24 4 24 9 0 6 -12 6 -29 1 -21 -6 -31 -5 -34 3 -2 7 -3
4 -2 -5 5 -28 -14 -21 -21 7 -3 14 -10 22 -16 19 -5 -3 -4 -12 3 -21 10 -12
10 -16 -2 -24 -24 -16 -44 -5 -44 23 1 22 -2 25 -17 17 -10 -5 -18 -12 -18
-15 0 -3 4 -3 9 1 6 3 9 -3 8 -14 -1 -15 -4 -17 -14 -9 -8 6 -16 8 -19 6 -3
-3 6 -15 20 -26 30 -23 31 -31 12 -57 -13 -18 -14 -18 -9 9 5 24 3 28 -10 23
-22 -8 -34 37 -17 58 7 9 10 19 6 22 -4 4 -10 3 -14 -2 -12 -16 -39 -16 -46 0
-3 8 -10 15 -16 15 -6 0 -8 -4 -5 -10 3 -5 1 -18 -5 -27 -8 -13 -10 -14 -9 -3
3 18 -18 70 -27 70 -3 0 -4 -9 -1 -20 4 -15 1 -20 -10 -18 -10 2 -20 -9 -27
-30 -6 -18 -15 -30 -20 -25 -5 5 -6 -1 -2 -12 6 -16 5 -17 -5 -8 -10 10 -9 15
0 27 7 8 10 20 6 27 -4 6 -2 15 5 19 14 9 5 30 -13 30 -8 0 -8 -3 2 -9 10 -6
10 -10 1 -16 -15 -9 -19 -4 -22 28 -1 15 -6 27 -11 27 -4 0 -7 -10 -5 -22 2
-17 -2 -23 -14 -22 -14 1 -17 -6 -14 -48 1 -28 -1 -43 -5 -36 -13 21 -11 96 3
100 12 4 6 23 -19 68 -2 3 76 4 172 2 102 -2 173 -7 170 -12z m4973 -3 c11 -8
13 -8 9 0 -5 8 13 11 64 12 38 0 74 3 80 6 5 4 9 -11 9 -34 0 -28 -4 -40 -12
-39 -17 4 -40 36 -34 47 3 4 -6 6 -19 3 -14 -2 -25 -9 -25 -14 0 -6 7 -8 15
-4 8 3 15 1 15 -4 0 -15 -18 -21 -26 -9 -5 9 -11 6 -22 -7 -10 -14 -16 -15
-19 -6 -4 10 -8 10 -19 1 -15 -12 -20 -34 -6 -25 4 2 9 -5 9 -16 2 -21 2 -21
-13 1 -8 11 -12 26 -9 31 3 6 2 10 -4 10 -5 0 -12 8 -14 18 -2 9 -3 3 -2 -14
3 -24 -1 -30 -16 -30 -27 1 -28 -17 -1 -19 32 -2 50 -22 20 -22 -32 0 -59 -13
-51 -26 3 -6 1 -7 -5 -3 -17 10 -15 26 3 26 18 0 20 16 4 26 -6 3 -15 1 -19
-6 -5 -7 -7 -2 -7 15 0 19 2 23 8 14 7 -11 11 -10 23 6 18 23 21 55 6 55 -5 0
-10 -9 -10 -20 0 -28 -20 -25 -21 3 -1 20 -2 20 -12 -5 -6 -16 -17 -28 -24
-28 -15 0 -17 -16 -4 -24 5 -4 12 0 14 6 4 9 6 10 6 1 1 -6 -4 -15 -9 -18 -13
-8 -38 17 -32 33 6 19 -7 14 -32 -12 -30 -34 -47 -36 -52 -7 -6 33 -17 43 -12
11 2 -21 -1 -25 -22 -25 -15 0 -26 -7 -28 -18 -2 -9 1 -17 7 -17 6 0 8 7 4 16
-5 14 -3 15 15 5 15 -8 22 -8 25 2 4 9 6 9 6 0 1 -18 -38 -36 -57 -27 -9 4
-23 6 -31 5 -7 -1 -10 2 -6 8 3 6 1 11 -5 11 -7 0 -10 7 -7 14 8 21 -16 10
-31 -14 -10 -16 -10 -20 0 -20 9 0 9 -3 -2 -9 -27 -18 -29 0 -5 52 14 28 25
61 25 73 0 11 2 23 4 25 2 2 80 3 172 1 115 -1 172 -6 182 -15z m-5718 9 c0
-2 -8 -10 -17 -17 -16 -13 -17 -12 -4 4 13 16 21 21 21 13z m2064 -12 c4 -10
-4 -19 -26 -28 -17 -8 -25 -15 -18 -18 9 -3 11 -11 6 -24 -6 -12 -10 -15 -13
-6 -3 6 -11 12 -18 12 -8 0 -18 7 -23 16 -6 10 -12 13 -16 6 -3 -5 -15 -8 -27
-5 -12 3 -25 0 -29 -7 -13 -21 -30 -1 -30 36 l0 34 94 0 c76 0 95 -3 100 -16z
m2798 -6 l21 -21 -5 21 c-4 12 -2 22 3 22 5 0 9 -14 9 -30 0 -40 20 -87 54
-127 22 -27 25 -36 16 -53 -6 -11 -13 -20 -16 -20 -2 0 0 9 6 20 8 14 8 20 0
20 -6 0 -9 4 -6 9 6 9 -31 47 -42 44 -3 -1 -10 -10 -14 -20 -6 -12 -7 -9 -3
10 3 15 1 27 -5 27 -5 0 -10 -5 -10 -12 0 -6 -3 -8 -6 -5 -4 4 1 19 11 34 12
18 14 28 6 31 -6 2 -9 7 -6 12 3 4 -3 6 -14 3 -12 -3 -24 3 -34 18 -14 19 -19
20 -32 9 -17 -14 -20 -40 -5 -40 6 0 10 7 10 15 0 19 7 19 26 1 7 -8 18 -16
24 -18 6 -2 7 -19 1 -48 l-9 -45 -7 32 c-7 29 -35 56 -35 33 0 -5 -8 -6 -17
-3 -12 5 -15 2 -10 -10 3 -9 2 -19 -3 -22 -5 -3 -7 -12 -4 -20 4 -9 -1 -13
-15 -12 -25 2 -28 22 -3 32 30 12 -18 24 -63 15 -22 -4 -35 -8 -30 -9 6 -1 3
-5 -5 -11 -9 -5 -19 -5 -27 2 -9 7 -13 7 -13 -2 0 -7 -6 -10 -14 -7 -8 3 -17
3 -20 -1 -12 -11 -36 -10 -36 1 0 7 -5 4 -11 -5 -5 -10 -9 -20 -9 -23 0 -3
-11 -25 -25 -49 -19 -32 -22 -45 -13 -48 7 -3 -10 -5 -37 -5 -42 0 -45 0 -16
6 36 6 62 45 37 54 -9 4 -11 -2 -8 -19 2 -14 0 -24 -8 -24 -7 0 -9 8 -5 20 4
12 2 20 -6 20 -8 0 -9 3 0 13 6 8 8 17 4 20 -12 12 -19 7 -20 -15 -1 -11 -8
-25 -15 -30 -10 -6 -10 -10 2 -18 8 -5 11 -10 5 -10 -20 0 -37 18 -30 30 6 9
4 11 -5 5 -18 -11 -8 -224 11 -236 8 -5 34 -9 59 -10 38 -1 41 -2 20 -9 -22
-7 -20 -8 12 -7 29 1 35 4 26 14 -8 10 -6 13 10 13 11 0 23 -6 26 -12 5 -10 7
-10 12 0 6 13 184 18 184 5 0 -5 11 -13 25 -19 25 -12 103 0 115 16 3 4 14 10
25 13 13 3 8 5 -15 7 -32 2 -33 3 -10 9 17 5 25 14 24 28 0 18 2 19 18 9 13
-7 18 -19 15 -34 -3 -16 -1 -22 9 -18 7 3 16 1 18 -3 3 -5 17 -6 31 -3 20 3
25 0 25 -16 0 -19 -6 -21 -62 -21 -35 0 -78 -5 -97 -10 -19 -6 -38 -8 -44 -4
-6 4 -7 1 -2 -7 6 -10 4 -12 -9 -7 -9 4 -15 3 -12 -2 3 -4 -4 -17 -15 -27 -11
-10 -32 -42 -45 -71 -22 -45 -29 -53 -54 -53 -34 0 -45 14 -53 64 -12 78 -75
116 -192 116 l-75 0 0 250 0 250 240 0 c233 0 241 -1 262 -22z m-4909 -45 c-5
-13 -3 -15 13 -9 15 6 17 5 7 -5 -15 -15 -40 2 -29 20 11 17 16 13 9 -6z
m3784 -5 c-3 -8 -6 -5 -6 6 -1 11 2 17 5 13 3 -3 4 -12 1 -19z m2073 -8 c0 -5
-4 -10 -10 -10 -5 0 -10 5 -10 10 0 6 5 10 10 10 6 0 10 -4 10 -10z m-5813
-22 c-3 -8 -6 -5 -6 6 -1 11 2 17 5 13 3 -3 4 -12 1 -19z m5777 7 c-7 -16 -24
-21 -24 -6 0 8 7 13 27 20 1 1 0 -6 -3 -14z m96 -17 c-1 -28 -2 -31 -13 -17
-7 9 -18 14 -26 11 -8 -3 -11 0 -7 7 4 6 14 11 22 11 8 0 14 5 14 10 0 6 2 10
5 10 3 0 5 -15 5 -32z m531 22 c15 9 19 7 19 -6 0 -10 5 -14 15 -10 8 3 15 1
15 -5 0 -6 -10 -9 -22 -8 -13 2 -29 0 -35 -4 -8 -5 -13 -3 -13 4 0 7 -8 5 -21
-7 -16 -15 -22 -16 -28 -5 -5 8 -13 11 -18 8 -5 -3 -10 0 -10 8 0 19 11 19 27
0 15 -18 39 -3 41 24 0 10 2 11 6 4 3 -9 10 -10 24 -3z m-4539 -42 c-6 -6 -7
0 -4 19 5 21 7 23 10 9 2 -10 0 -22 -6 -28z m3696 21 c-11 -7 -10 -11 2 -19
11 -7 12 -10 2 -10 -7 0 -20 6 -27 14 -17 16 0 37 22 29 12 -5 12 -7 1 -14z
m-4988 -16 c0 -12 -4 -24 -9 -27 -5 -4 -8 2 -7 11 2 10 -3 23 -11 28 -12 9
-10 11 6 11 15 0 21 -7 21 -23z m3167 5 c-3 -8 -6 -5 -6 6 -1 11 2 17 5 13 3
-3 4 -12 1 -19z m-3767 8 c0 -2 -8 -10 -17 -17 -16 -13 -17 -12 -4 4 13 16 21
21 21 13z m508 -16 c4 -12 2 -13 -9 -3 -9 9 -16 10 -26 1 -11 -8 -12 -7 -7 6
8 20 35 17 42 -4z m4342 7 c0 -7 -6 -22 -14 -33 -13 -17 -15 -18 -21 -2 -4 9
-1 24 7 32 16 19 28 20 28 3z m-4193 -22 c9 -21 8 -27 -7 -35 -13 -7 -20 -6
-24 6 -3 9 -2 12 5 9 6 -4 7 3 3 19 -8 33 7 34 23 1z m19 -2 c-10 -10 -19 5
-10 18 6 11 8 11 12 0 2 -7 1 -15 -2 -18z m4924 -21 c3 -3 -3 -2 -13 1 -11 4
-25 1 -33 -8 -14 -13 -13 -16 7 -23 17 -7 19 -10 7 -14 -20 -8 -39 5 -42 28
-3 21 -27 26 -33 7 -3 -7 0 -13 6 -13 6 0 11 -7 11 -16 0 -11 -6 -14 -21 -9
-16 5 -19 4 -14 -5 5 -9 4 -11 -3 -6 -9 5 -9 13 -1 29 7 12 8 19 4 15 -4 -4
-18 -3 -31 2 -26 10 -27 10 -18 -14 5 -14 9 -14 23 -4 14 11 14 11 4 -3 -7 -9
-10 -19 -6 -22 3 -4 1 -7 -5 -7 -6 0 -18 13 -27 30 -11 21 -20 28 -33 23 -21
-8 -42 -35 -36 -45 3 -5 0 -8 -5 -8 -6 0 -11 2 -11 4 0 2 -3 13 -6 23 -4 13
-3 14 4 5 8 -11 10 -11 15 0 8 22 -26 18 -41 -4 -7 -10 -18 -16 -23 -13 -5 4
5 18 21 32 22 18 34 22 43 15 14 -12 47 7 47 27 0 7 5 9 10 6 6 -4 8 -10 5
-15 -3 -4 4 -6 15 -3 11 3 20 0 20 -6 0 -18 23 -13 60 13 l35 24 30 -21 c17
-11 32 -23 35 -25z m40 42 c0 -8 -19 -13 -24 -6 -3 5 1 9 9 9 8 0 15 -2 15 -3z
m865 -13 c-3 -6 -11 -8 -17 -5 -6 4 -5 9 3 15 16 10 23 4 14 -10z m-4514 -57
c5 -26 17 -53 26 -60 17 -12 16 -13 -4 -11 -12 0 -20 4 -17 8 2 4 1 10 -4 13
-4 2 -9 19 -10 38 -1 18 -9 38 -18 44 -12 9 -12 13 -2 17 18 6 19 4 29 -49z
m2744 46 c-11 -5 -27 -9 -35 -9 -13 -1 -13 0 0 9 8 5 24 9 35 9 l20 0 -20 -9z
m1155 -12 c0 -6 -6 -5 -15 2 -8 7 -15 14 -15 16 0 2 7 1 15 -2 8 -4 15 -11 15
-16z m584 16 c9 -3 16 -10 16 -16 0 -5 -6 -6 -12 -1 -21 12 -41 13 -55 1 -10
-8 -12 -7 -7 6 6 16 30 21 58 10z m-6447 -26 c-3 -8 -6 -5 -6 6 -1 11 2 17 5
13 3 -3 4 -12 1 -19z m873 12 c0 -5 -4 -10 -10 -10 -5 0 -10 5 -10 10 0 6 5
10 10 10 6 0 10 -4 10 -10z m982 -9 c-6 -4 -10 -17 -7 -29 2 -13 -1 -22 -9
-22 -24 0 -25 13 -5 42 12 16 24 26 27 23 4 -3 1 -9 -6 -14z m4485 -3 c-3 -8
-6 -5 -6 6 -1 11 2 17 5 13 3 -3 4 -12 1 -19z m163 12 c12 -8 11 -10 -7 -10
-13 0 -23 5 -23 10 0 13 11 13 30 0z m-5733 -37 c1 -34 0 -35 -8 -14 -9 22 -6
51 4 51 2 0 3 -17 4 -37z m2207 21 c3 -8 1 -14 -5 -14 -6 0 -7 -5 -3 -12 4 -6
3 -8 -4 -4 -5 3 -13 0 -16 -6 -4 -7 -4 -3 -2 10 2 12 0 22 -5 22 -5 0 -9 4 -9
8 0 14 38 11 44 -4z m338 -16 c-8 -8 -9 -4 -5 13 4 13 8 18 11 10 2 -7 -1 -18
-6 -23z m1421 5 c6 -13 14 -23 19 -23 5 0 3 10 -3 23 -12 22 -12 22 8 2 16
-17 17 -22 6 -33 -15 -16 -18 -36 -3 -27 6 3 10 1 10 -5 0 -6 5 -8 12 -4 7 4
8 3 4 -4 -4 -6 -13 -9 -21 -6 -10 4 -12 0 -8 -15 3 -12 1 -27 -3 -34 -5 -7 -1
-4 9 6 10 12 17 14 17 7 0 -7 -7 -18 -17 -25 -13 -9 -22 -9 -46 3 -17 8 -52
14 -79 13 -45 -1 -48 0 -48 24 0 18 -4 23 -15 19 -8 -4 -15 -1 -15 6 0 6 4 9
9 5 12 -7 41 22 43 43 0 9 2 22 3 27 2 6 3 12 4 15 1 3 24 5 53 5 43 0 52 -3
61 -22z m-4961 -21 c-4 -11 -6 -11 -13 0 -5 7 -9 19 -9 26 0 10 3 10 14 0 7
-7 11 -19 8 -26z m1087 4 c-1 -17 -2 -17 -6 -3 -2 9 -11 17 -19 17 -8 0 -14 4
-14 9 0 5 9 7 20 4 13 -3 20 -13 19 -27z m1076 -12 c0 -13 -6 -24 -13 -24 -8
0 -10 8 -6 25 3 14 2 25 -4 25 -5 0 -12 -13 -15 -30 -4 -16 -12 -30 -18 -30
-7 0 -9 10 -5 27 5 17 3 29 -6 35 -9 6 -6 7 9 3 12 -3 24 -1 28 4 10 16 30 -8
30 -35z m925 37 c0 -6 -5 -13 -11 -16 -6 -4 -8 -14 -4 -24 5 -13 4 -13 -6 -4
-10 10 -16 9 -30 -3 -14 -12 -22 -13 -36 -4 -16 10 -16 10 5 5 23 -7 32 10 10
18 -8 2 -9 8 -4 13 5 5 11 4 13 -3 3 -7 9 -13 15 -13 6 0 8 6 5 14 -3 8 -3 17
0 20 10 10 43 7 43 -3z m1710 -12 c0 -5 -4 -9 -10 -9 -5 0 -10 7 -10 16 0 8 5
12 10 9 6 -3 10 -10 10 -16z m230 5 c0 -2 -7 -4 -15 -4 -8 0 -15 4 -15 10 0 5
7 7 15 4 8 -4 15 -8 15 -10z m115 0 c-14 -11 -16 -18 -7 -21 6 -3 12 -9 12
-14 0 -6 -4 -8 -8 -5 -12 7 -44 -33 -37 -44 4 -6 2 -10 -4 -10 -18 0 -18 25 1
42 10 9 15 19 10 22 -4 2 -21 -6 -37 -20 -33 -28 -32 -28 -41 -12 -4 7 -3 8 4
4 15 -9 15 -1 1 26 -7 12 -7 18 -1 14 6 -3 13 0 16 6 3 7 3 3 0 -9 -7 -29 12
-30 26 -2 8 14 15 17 24 10 8 -7 15 -4 24 10 7 10 18 19 25 19 6 0 3 -8 -8
-16z m902 -6 c-3 -8 -6 -5 -6 6 -1 11 2 17 5 13 3 -3 4 -12 1 -19z m-5880 -10
c-3 -8 -6 -5 -6 6 -1 11 2 17 5 13 3 -3 4 -12 1 -19z m2078 -8 c1 -10 -2 -17
-7 -14 -4 3 -8 15 -8 26 0 26 13 15 15 -12z m3712 8 c-3 -8 -6 -5 -6 6 -1 11
2 17 5 13 3 -3 4 -12 1 -19z m133 12 c0 -5 -5 -10 -11 -10 -5 0 -7 5 -4 10 3
6 8 10 11 10 2 0 4 -4 4 -10z m549 -24 c-3 -3 -11 5 -18 17 -13 21 -12 21 5 5
10 -10 16 -20 13 -22z m51 24 c0 -5 -5 -10 -11 -10 -5 0 -7 5 -4 10 3 6 8 10
11 10 2 0 4 -4 4 -10z m-6554 -15 c-9 -7 -16 -17 -16 -24 0 -6 -4 -11 -10 -11
-6 0 -6 9 1 23 6 13 18 24 26 24 14 0 14 -2 -1 -12z m682 -16 c-3 -8 -7 -3
-11 10 -4 17 -3 21 5 13 5 -5 8 -16 6 -23z m149 12 c0 -11 -5 -18 -9 -15 -4 3
-5 11 -1 19 7 21 12 19 10 -4z m3803 4 c0 -8 -4 -15 -10 -15 -5 0 -7 7 -4 15
4 8 8 15 10 15 2 0 4 -7 4 -15z m461 -2 c13 -16 12 -17 -3 -4 -10 7 -18 15
-18 17 0 8 8 3 21 -13z m-4447 -1 c3 -5 -1 -9 -9 -9 -8 0 -12 4 -9 9 3 4 7 8
9 8 2 0 6 -4 9 -8z m2456 -32 c5 0 10 -5 10 -11 0 -5 -3 -8 -8 -5 -11 6 -45
-21 -38 -32 6 -10 36 -10 53 1 6 4 14 3 17 -2 7 -11 -20 -24 -53 -24 -16 -1
-25 5 -27 17 -3 24 6 47 16 41 5 -3 11 -1 15 5 3 5 1 10 -4 10 -6 0 -11 10
-10 23 l0 22 9 -22 c5 -13 14 -23 20 -23z m3305 22 c-3 -3 -11 0 -18 7 -9 10
-8 11 6 5 10 -3 15 -9 12 -12z m-6497 -9 c4 3 14 1 22 -5 12 -8 12 -9 -2 -4
-25 8 -27 -26 -3 -47 19 -18 19 -18 -8 -1 -15 9 -26 22 -24 28 3 6 -3 20 -12
31 -15 18 -15 19 1 6 9 -7 21 -10 26 -8z m838 -3 c0 -11 -4 -20 -8 -20 -4 0
-8 9 -8 20 0 11 4 20 8 20 4 0 8 -9 8 -20z m2250 -6 c-4 -9 -9 -15 -11 -12 -3
3 -3 13 1 22 4 9 9 15 11 12 3 -3 3 -13 -1 -22z m2335 -4 c5 0 9 -5 9 -12 0
-9 -3 -9 -11 -1 -6 6 -18 9 -26 6 -8 -3 -13 0 -11 8 5 21 23 30 26 14 2 -8 8
-15 13 -15z m-4261 10 c0 -5 -7 -7 -15 -4 -8 4 -15 8 -15 10 0 2 7 4 15 4 8 0
15 -4 15 -10z m546 -52 c-6 -4 -12 -1 -14 7 -2 8 -10 15 -18 15 -8 0 -14 5
-14 10 0 6 -7 10 -16 10 -8 0 -12 4 -9 10 3 5 23 -3 44 -18 24 -17 34 -30 27
-34z m279 52 c4 -6 1 -9 -7 -8 -7 2 -12 -3 -10 -10 1 -8 -2 -11 -8 -7 -8 5 -7
11 1 21 14 17 16 17 24 4z m250 0 c3 -5 1 -10 -4 -10 -6 0 -11 5 -11 10 0 6 2
10 4 10 3 0 8 -4 11 -10z m1480 0 c3 -5 1 -10 -4 -10 -6 0 -11 5 -11 10 0 6 2
10 4 10 3 0 8 -4 11 -10z m-3750 -9 c3 -6 -4 -9 -15 -8 -11 1 -20 5 -20 9 0
11 28 10 35 -1z m1115 -12 c0 -5 -7 -12 -16 -16 -9 -3 -20 -15 -24 -27 -8 -19
-9 -19 -9 7 -1 21 4 27 20 27 18 0 19 2 9 15 -11 13 -10 14 4 9 9 -3 16 -10
16 -15z m457 3 c-9 -2 -15 -7 -13 -11 3 -4 -1 -8 -9 -8 -18 0 -20 24 -2 30 6
2 19 1 27 -2 12 -4 12 -6 -3 -9z m1513 8 c0 -5 -8 -10 -17 -10 -15 0 -16 2 -3
10 19 12 20 12 20 0z m77 -9 c0 -11 -5 -18 -9 -15 -4 3 -5 11 -1 19 7 21 12
19 10 -4z m2133 10 c0 -5 -9 -7 -20 -4 -11 3 -20 7 -20 9 0 2 9 4 20 4 11 0
20 -4 20 -9z m-2265 -11 c-3 -5 1 -10 9 -10 9 0 16 -4 16 -10 0 -5 -4 -10 -9
-10 -13 0 -32 26 -24 33 10 10 15 8 8 -3z m1709 3 c-5 -5 -12 -12 -16 -18 -4
-6 -8 -2 -8 8 0 9 7 17 17 17 9 0 12 -3 7 -7z m409 -6 c3 -7 -3 -13 -14 -13
-13 0 -15 3 -7 13 6 7 12 13 13 13 2 0 5 -6 8 -13z m225 -7 c4 -12 2 -13 -9
-3 -8 6 -25 13 -39 16 -17 4 -15 5 9 4 21 -1 36 -8 39 -17z m133 -3 c-10 -9
-11 -8 -5 6 3 10 9 15 12 12 3 -3 0 -11 -7 -18z m-4171 -13 c0 -3 -6 -12 -14
-19 -12 -12 -14 -10 -18 15 -4 25 -2 28 14 19 10 -5 18 -12 18 -15z m92 -19
c-3 -18 0 -25 12 -25 9 0 16 -4 16 -8 0 -12 -39 -12 -46 -1 -4 6 -11 6 -20 -2
-11 -9 -14 -9 -14 0 0 7 -5 9 -10 6 -8 -5 -8 -11 -1 -19 6 -7 8 -16 5 -19 -10
-9 -32 16 -27 30 3 7 2 13 -2 13 -12 0 -35 -28 -35 -44 0 -9 -6 -16 -14 -16
-16 0 -29 27 -17 35 5 3 7 24 5 48 -3 39 -3 40 5 9 12 -45 20 -51 37 -27 12
16 16 17 23 6 7 -11 11 -10 19 5 5 11 7 25 5 32 -3 6 1 12 7 12 8 0 9 -10 4
-32 -6 -28 -5 -31 8 -20 8 6 18 9 21 5 10 -10 8 10 -2 27 -13 19 -3 34 13 20
7 -5 11 -21 8 -35z m704 33 c4 -7 3 -8 -4 -4 -7 4 -12 2 -12 -5 0 -7 -3 -10
-6 -6 -6 5 3 27 11 27 2 0 7 -5 11 -12z m25 -35 c-9 -7 -11 -13 -5 -13 7 0 9
-11 6 -25 -7 -38 -18 -30 -19 15 0 22 3 40 8 40 5 0 9 8 10 18 0 14 2 14 8 -3
6 -14 3 -24 -8 -32z m114 37 c3 -5 2 -10 -4 -10 -5 0 -13 5 -16 10 -3 6 -2 10
4 10 5 0 13 -4 16 -10z m3135 0 c0 -5 -5 -10 -11 -10 -5 0 -7 5 -4 10 3 6 8
10 11 10 2 0 4 -4 4 -10z m-5429 -23 c-10 -9 -11 -8 -5 6 3 10 9 15 12 12 3
-3 0 -11 -7 -18z m149 13 c0 -5 -5 -10 -11 -10 -5 0 -7 5 -4 10 3 6 8 10 11
10 2 0 4 -4 4 -10z m1060 0 c-13 -8 -13 -10 2 -10 9 0 20 5 24 11 5 8 10 6 16
-5 5 -9 14 -13 21 -9 7 4 6 0 -2 -10 -17 -21 -32 -22 -25 -2 5 13 2 14 -17 6
-17 -6 -28 -5 -36 4 -10 11 -10 15 0 18 21 9 32 7 17 -3z m333 -4 c25 -8 34
-15 25 -19 -8 -3 -21 -1 -29 4 -17 11 -29 11 -28 2 3 -21 -2 -33 -16 -33 -8 0
-15 8 -15 18 0 15 -2 15 -11 2 -8 -12 -9 -11 -7 5 2 12 11 19 21 19 9 -1 17 2
17 7 0 11 -3 11 43 -5z m454 7 c-9 -2 -15 -8 -12 -13 3 -5 -4 -8 -15 -7 -20 1
-20 2 -4 14 10 7 25 12 33 12 12 -1 12 -2 -2 -6z m1003 3 c0 -3 -4 -8 -10 -11
-5 -3 -10 -1 -10 4 0 6 5 11 10 11 6 0 10 -2 10 -4z m155 -6 c3 -5 1 -10 -4
-10 -6 0 -11 5 -11 10 0 6 2 10 4 10 3 0 8 -4 11 -10z m320 -9 c-3 -6 -14 -11
-23 -11 -13 0 -13 2 4 14 21 15 30 14 19 -3z m502 -3 c-3 -8 -6 -5 -6 6 -1 11
2 17 5 13 3 -3 4 -12 1 -19z m-3032 2 c3 -6 -1 -7 -9 -4 -18 7 -21 14 -7 14 6
0 13 -4 16 -10z m1131 -10 c8 0 14 4 14 8 0 5 6 9 14 9 13 0 11 -26 -3 -28
-37 -8 -47 -4 -48 15 -1 12 1 15 4 9 3 -7 11 -13 19 -13z m197 -17 c-3 -7 -10
-13 -15 -13 -6 0 -6 -6 2 -15 6 -8 10 -22 7 -32 -4 -14 -5 -14 -6 4 0 12 -6
25 -12 29 -7 4 -9 0 -5 -13 9 -28 -15 -46 -45 -34 -24 10 -24 10 4 10 24 1 27
4 22 21 -4 14 -1 22 10 26 9 4 14 13 11 21 -4 8 -4 19 -1 24 8 13 33 -13 28
-28z m4423 25 c3 -5 1 -15 -6 -21 -9 -9 -11 -9 -8 3 2 8 -2 14 -9 15 -20 0
-23 11 -3 12 11 1 22 -3 26 -9z m-6668 -12 c-10 -7 -15 -16 -11 -19 3 -4 1 -7
-5 -7 -18 0 -14 18 6 29 24 15 30 13 10 -3z m1107 4 c-3 -5 -11 -10 -16 -10
-6 0 -7 5 -4 10 3 6 11 10 16 10 6 0 7 -4 4 -10z m1088 -2 c-4 -7 -8 -19 -9
-26 -3 -19 -13 -27 -21 -18 -4 4 -1 11 7 16 11 7 11 10 2 10 -10 0 -10 3 0 15
16 18 32 20 21 3z m800 -1 c7 -17 -9 -44 -20 -34 -4 5 -1 12 7 17 10 7 11 10
3 10 -7 0 -13 5 -13 10 0 15 17 12 23 -3z m-2888 -6 c3 -5 2 -12 -3 -15 -5 -3
-9 1 -9 9 0 17 3 19 12 6z m845 5 c0 -3 -4 -8 -10 -11 -5 -3 -10 -1 -10 4 0 6
5 11 10 11 6 0 10 -2 10 -4z m930 -4 c0 -4 -18 -6 -40 -4 -22 2 -40 6 -40 8 0
2 18 4 40 4 22 0 40 -3 40 -8z m234 -8 c4 -10 1 -14 -6 -12 -15 5 -23 28 -10
28 5 0 13 -7 16 -16z m989 1 c-3 -9 -8 -14 -10 -11 -3 3 -2 9 2 15 9 16 15 13
8 -4z m1687 5 c0 -5 -2 -10 -4 -10 -3 0 -8 5 -11 10 -3 6 -1 10 4 10 6 0 11
-4 11 -10z m1910 0 c0 -5 -4 -10 -10 -10 -5 0 -10 5 -10 10 0 6 5 10 10 10 6
0 10 -4 10 -10z m-5504 -26 c-5 -14 -9 -15 -19 -5 -9 9 -9 14 3 21 18 11 24 6
16 -16z m308 0 c-4 -17 -3 -25 3 -21 6 4 9 -4 7 -21 -2 -15 -1 -21 2 -14 9 19
20 14 32 -13 6 -14 17 -25 23 -25 8 0 8 4 -1 15 -7 8 -9 15 -4 15 5 0 2 5 -6
11 -11 7 -4 8 25 4 30 -5 36 -4 25 4 -13 10 -13 12 0 20 12 9 12 11 -4 17 -13
5 -15 9 -5 15 15 9 44 -25 34 -41 -3 -6 1 -10 9 -10 8 0 18 5 22 12 5 7 3 8
-7 3 -12 -8 -12 -6 0 8 14 18 26 23 16 8 -3 -5 3 -16 12 -23 20 -15 24 -34 24
-132 0 -83 -15 -124 -48 -132 -39 -10 -63 20 -63 78 l0 48 -90 0 c-71 0 -99 4
-130 20 -54 28 -109 26 -154 -5 -44 -30 -56 -31 -57 -7 0 14 -2 14 -7 2 -6
-12 -22 -14 -82 -10 -41 3 -70 8 -65 11 15 11 59 14 71 7 6 -4 28 1 49 12 22
11 41 17 44 12 4 -4 13 -8 22 -8 11 -1 14 5 11 22 -4 21 0 24 29 25 82 3 117
1 128 -6 19 -11 41 2 41 25 0 11 5 20 10 20 6 0 10 8 8 18 -2 11 3 16 15 14 9
-2 17 3 17 10 0 9 3 9 10 -2 7 -11 10 -11 10 -2 0 11 20 40 28 42 1 0 -1 -12
-4 -26z m2087 13 c-6 -8 -7 -18 -3 -22 4 -5 1 -5 -6 -1 -10 6 -10 11 -1 22 6
8 14 14 16 14 3 0 0 -6 -6 -13z m1039 -7 c0 -4 -8 -10 -18 -12 -12 -3 -18 1
-18 12 0 11 6 15 18 12 10 -2 18 -8 18 -12z m-4615 0 c3 -5 1 -10 -4 -10 -6 0
-11 5 -11 10 0 6 2 10 4 10 3 0 8 -4 11 -10z m920 -8 c8 7 45 -27 45 -42 0 -5
-4 -10 -10 -10 -5 0 -9 5 -7 12 1 6 -10 18 -25 25 -16 8 -28 19 -28 26 0 7 4
6 10 -3 5 -8 12 -12 15 -8z m55 3 c0 -8 -2 -15 -4 -15 -2 0 -6 7 -10 15 -3 8
-1 15 4 15 6 0 10 -7 10 -15z m1290 -13 c0 -15 -2 -15 -10 -2 -8 12 -10 12
-10 1 0 -8 -2 -12 -5 -9 -3 3 -3 13 1 22 7 19 24 11 24 -12z m2746 8 c5 1 10
-4 12 -10 3 -9 -1 -9 -16 -1 -10 6 -22 7 -26 3 -4 -3 -4 2 0 12 5 12 9 14 14
6 4 -6 11 -11 16 -10z m-4946 0 c0 -5 -5 -10 -11 -10 -5 0 -7 5 -4 10 3 6 8
10 11 10 2 0 4 -4 4 -10z m3100 -9 c13 -25 -3 -36 -21 -14 -12 14 -12 16 0 8
11 -6 13 -4 8 8 -9 23 0 21 13 -2z m-3050 5 c0 -2 -8 -10 -17 -17 -16 -13 -17
-12 -4 4 13 16 21 21 21 13z m1420 -6 c0 -5 -2 -10 -4 -10 -3 0 -8 5 -11 10
-3 6 -1 10 4 10 6 0 11 -4 11 -10z m31 -3 c-1 -12 -15 -9 -19 4 -3 6 1 10 8 8
6 -3 11 -8 11 -12z m474 -5 c-3 -3 -11 0 -18 7 -9 10 -8 11 6 5 10 -3 15 -9
12 -12z m56 8 c5 0 9 -4 9 -8 0 -14 -25 -10 -40 7 -13 13 -12 14 4 8 10 -4 22
-7 27 -7z m3647 -21 c-3 -8 -7 -3 -11 10 -4 17 -3 21 5 13 5 -5 8 -16 6 -23z
m-5679 5 c3 -4 -7 -4 -22 0 -22 5 -27 4 -21 -6 6 -10 3 -9 -9 1 -9 7 -17 15
-17 16 0 6 63 -4 69 -11z m865 -16 c-3 -5 5 -12 17 -17 23 -8 22 -8 -5 -13
-21 -4 -26 -2 -22 9 3 7 -1 16 -8 19 -8 3 -17 11 -19 18 -4 11 0 11 18 2 13
-6 21 -14 19 -18z m776 22 c0 -5 -5 -10 -11 -10 -5 0 -7 5 -4 10 3 6 8 10 11
10 2 0 4 -4 4 -10z m1300 0 c0 -5 -7 -10 -16 -10 -8 0 -12 5 -9 10 3 6 10 10
16 10 5 0 9 -4 9 -10z m74 1 c3 -5 0 -11 -7 -14 -8 -3 -14 1 -14 9 0 16 13 19
21 5z m36 -1 c0 -5 -4 -10 -10 -10 -5 0 -10 5 -10 10 0 6 5 10 10 10 6 0 10
-4 10 -10z m1670 -11 c0 -11 -4 -17 -10 -14 -5 3 -10 13 -10 21 0 8 5 14 10
14 6 0 10 -9 10 -21z m-3483 -11 c-3 -8 -6 -5 -6 6 -1 11 2 17 5 13 3 -3 4
-12 1 -19z m93 11 c0 -5 -5 -7 -11 -3 -8 4 -9 -1 -5 -17 6 -20 5 -21 -4 -6
-11 18 -6 37 11 37 5 0 9 -5 9 -11z m1627 -8 c0 -11 -7 -17 -14 -14 -9 4 -9 8
0 19 16 17 16 17 14 -5z m2763 15 c0 -2 -8 -10 -17 -17 -16 -13 -17 -12 -4 4
13 16 21 21 21 13z m-4550 -16 c0 -5 -7 -7 -15 -4 -8 4 -15 8 -15 10 0 2 7 4
15 4 8 0 15 -4 15 -10z m1908 -15 c-3 -3 -9 2 -12 12 -6 14 -5 15 5 6 7 -7 10
-15 7 -18z m343 4 c-21 -17 -23 -22 -10 -30 10 -8 8 -9 -8 -4 -17 5 -21 3 -18
-7 7 -16 -31 -42 -40 -27 -5 7 -11 6 -21 -2 -15 -13 -17 -9 -8 15 7 17 34 22
34 6 0 -5 5 -10 10 -10 6 0 10 7 10 16 0 8 -4 13 -8 10 -4 -2 -14 0 -22 5 -11
8 -8 10 12 6 19 -3 34 3 49 19 13 13 27 24 33 24 6 -1 0 -10 -13 -21z m226
-26 c-3 -10 -5 -2 -5 17 0 19 2 27 5 18 2 -10 2 -26 0 -35z m1448 37 c3 -5 1
-10 -4 -10 -6 0 -11 5 -11 10 0 6 2 10 4 10 3 0 8 -4 11 -10z m122 -4 c0 -8
-6 -12 -14 -9 -7 3 -10 9 -7 14 8 14 21 11 21 -5z m-2077 -39 c0 -4 -7 -2 -15
7 -8 8 -15 21 -15 28 1 14 30 -20 30 -35z m358 25 c-10 -2 -18 -7 -18 -12 0
-10 62 -24 93 -22 9 0 15 -4 11 -9 -3 -6 -12 -8 -20 -5 -13 5 -19 -6 -15 -28
1 -4 -10 -5 -24 -2 -18 5 -25 2 -25 -8 0 -11 14 -16 48 -19 26 -2 -27 -4 -118
-4 -91 0 -142 3 -115 6 28 4 56 10 63 14 7 5 12 4 12 -2 0 -6 9 -11 20 -11 11
0 20 7 20 15 0 8 5 15 10 15 15 0 12 48 -2 53 -8 2 -9 8 -4 13 5 5 11 4 13 -3
7 -21 25 -15 18 6 -5 16 -1 17 22 13 19 -4 23 -7 11 -10z m1465 5 c22 4 27 2
27 -15 0 -31 -11 -52 -26 -52 -8 0 -14 7 -14 15 0 9 -9 15 -25 15 -20 0 -25 5
-25 25 0 21 3 24 18 16 9 -5 30 -7 45 -4z m300 -2 c4 -8 1 -17 -6 -21 -7 -4
-9 -4 -5 1 4 4 3 14 -3 22 -7 8 -8 13 -1 13 5 0 12 -7 15 -15z m397 5 c0 -5
-4 -10 -10 -10 -5 0 -10 5 -10 10 0 6 5 10 10 10 6 0 10 -4 10 -10z m-3694
-25 c-1 -20 -6 -25 -26 -24 -18 1 -20 3 -7 6 13 3 17 11 14 24 -3 11 0 19 8
19 7 0 12 -10 11 -25z m1095 8 c13 -17 13 -17 -6 -3 -11 8 -22 16 -24 17 -2 2
0 3 6 3 6 0 17 -8 24 -17z m2256 11 c-3 -3 -12 -4 -19 -1 -8 3 -5 6 6 6 11 1
17 -2 13 -5z m548 -4 c3 -6 -1 -7 -9 -4 -18 7 -21 14 -7 14 6 0 13 -4 16 -10z
m-3838 -6 c-3 -3 -12 -4 -19 -1 -8 3 -5 6 6 6 11 1 17 -2 13 -5z m123 -4 c0
-5 -2 -10 -4 -10 -3 0 -8 5 -11 10 -3 6 -1 10 4 10 6 0 11 -4 11 -10z m1415 0
c3 -5 -1 -10 -10 -10 -9 0 -13 5 -10 10 3 6 8 10 10 10 2 0 7 -4 10 -10z
m-3612 -20 c-3 -11 -9 -20 -14 -20 -10 0 -12 24 -2 33 13 13 21 7 16 -13z
m1152 11 c3 -5 0 -13 -6 -17 -7 -4 -9 -3 -5 4 3 5 0 13 -6 15 -9 4 -10 6 -1 6
6 1 14 -3 18 -8z m-384 -24 c-10 -9 -11 -8 -5 6 3 10 9 15 12 12 3 -3 0 -11
-7 -18z m4439 6 c0 -12 -3 -14 -8 -7 -4 7 -16 14 -27 17 -15 4 -14 5 8 6 20 1
27 -4 27 -16z m155 7 c3 -5 -1 -10 -10 -10 -9 0 -13 5 -10 10 3 6 8 10 10 10
2 0 7 -4 10 -10z m-4261 -30 c-6 -6 -10 -3 -10 10 0 13 4 16 10 10 7 -7 7 -13
0 -20z m-1066 7 c-7 -7 -22 -16 -33 -20 -16 -6 -15 -3 5 13 28 22 49 27 28 7z
m5953 -10 c-10 -9 -11 -8 -5 6 3 10 9 15 12 12 3 -3 0 -11 -7 -18z m-4031 -10
c21 -4 20 -4 -7 -6 -25 -1 -33 3 -33 17 0 11 3 13 8 6 4 -7 18 -14 32 -17z
m23 16 c-7 -2 -19 -2 -25 0 -7 3 -2 5 12 5 14 0 19 -2 13 -5z m2650 0 c-7 -2
-21 -2 -30 0 -10 3 -4 5 12 5 17 0 24 -2 18 -5z m664 1 c-3 -3 -12 -4 -19 -1
-8 3 -5 6 6 6 11 1 17 -2 13 -5z m443 -28 c14 -18 14 -18 -7 -6 -12 8 -19 18
-16 23 3 4 6 7 7 5 1 -2 8 -12 16 -22z m926 2 c3 -4 -1 -5 -10 -4 -8 1 -18 5
-22 8 -3 4 1 5 10 4 8 -1 18 -5 22 -8z m-6009 -30 c-3 -7 -5 -2 -5 12 0 14 2
19 5 13 2 -7 2 -19 0 -25z m1241 25 c-10 -2 -26 -2 -35 0 -10 3 -2 5 17 5 19
0 27 -2 18 -5z m3439 -15 c-3 -8 -6 -5 -6 6 -1 11 2 17 5 13 3 -3 4 -12 1 -19z
m-4514 -13 c43 -18 50 -19 42 -5 -3 5 0 7 9 4 12 -5 13 -9 3 -19 -10 -10 -18
-10 -47 5 -19 9 -42 20 -50 23 -8 3 -10 6 -4 6 6 1 28 -6 47 -14z m107 -9 c0
-2 -12 -11 -27 -20 l-28 -17 24 20 c23 21 31 25 31 17z m1430 -291 c19 -23 4
-64 -28 -71 -59 -15 -112 -44 -152 -86 -24 -23 -40 -37 -36 -30 4 6 2 12 -3
12 -6 0 -11 -5 -11 -12 0 -6 -3 -8 -6 -5 -4 3 -15 -5 -26 -18 -11 -14 -24 -23
-29 -20 -5 4 -9 0 -9 -9 0 -8 5 -17 10 -19 6 -3 5 -4 -2 -3 -7 1 -14 10 -16
18 -5 24 26 90 38 83 6 -3 7 1 4 10 -9 24 76 101 150 136 68 32 98 36 116 14z
m1550 -49 c0 -18 -14 -34 -57 -63 -44 -30 -65 -54 -89 -99 -25 -47 -36 -59
-55 -59 -20 0 -25 6 -27 32 -8 79 117 211 201 213 22 0 27 -4 27 -24z m-1785
-186 c-9 -16 -20 -30 -26 -30 -6 0 -1 14 11 30 12 17 23 30 26 30 2 0 -2 -13
-11 -30z m1116 -241 c19 -19 21 -30 17 -104 -5 -95 -16 -115 -64 -115 -45 0
-54 20 -54 119 0 74 2 81 26 100 34 26 49 26 75 0z m2129 -9 c10 -5 23 -24 29
-41 22 -65 -42 -133 -106 -112 -38 12 -65 66 -52 102 20 52 81 76 129 51z
m-2000 -405 c46 -24 70 -62 70 -112 0 -85 -48 -133 -133 -133 -50 0 -88 24
-112 70 -57 111 64 232 175 175z m-1607 -16 c51 -23 61 -92 21 -133 -52 -51
-133 -18 -136 56 -2 66 55 104 115 77z m3054 -21 c29 -32 34 -53 22 -88 -27
-77 -139 -65 -163 17 -8 24 8 61 33 80 27 21 85 16 108 -9z m-319 -179 c38
-13 66 -67 57 -108 -11 -50 -38 -65 -122 -69 -70 -4 -76 -3 -104 24 -22 21
-29 37 -29 65 0 42 30 86 63 92 44 8 105 7 135 -4z m-2210 -19 c25 -24 37 -61
28 -92 -13 -49 -21 -53 -114 -56 -88 -4 -89 -3 -111 25 -29 35 -24 99 9 125
33 27 158 25 188 -2z m1832 -155 c34 -31 42 -61 26 -100 -8 -18 -24 -38 -35
-44 -14 -8 -250 -11 -807 -9 l-786 3 -19 24 c-24 30 -24 82 0 112 l19 24 599
5 c951 9 977 9 1003 -15z"/>
<path d="M4127 5718 c-9 -7 -17 -29 -19 -48 -3 -32 -6 -35 -34 -35 -42 -1 -66
-22 -62 -54 3 -23 8 -26 51 -29 l47 -3 0 -48 c0 -47 10 -61 40 -61 21 0 40 34
40 70 l0 39 48 3 c44 3 47 5 50 33 4 36 -18 55 -65 55 -31 0 -33 2 -33 35 0
24 -6 37 -19 45 -24 13 -24 13 -44 -2z"/>
<path d="M4512 5608 c-8 -8 -12 -58 -12 -175 l0 -163 -58 6 c-47 5 -64 3 -86
-11 -59 -39 -73 -114 -30 -164 54 -65 151 -63 218 4 42 41 53 75 61 186 l7 87
45 -25 c62 -35 115 -35 150 -1 23 24 26 31 17 55 -8 23 -17 29 -55 34 -82 12
-123 42 -170 127 -27 49 -62 65 -87 40z"/>
<path d="M2525 5469 c-115 -32 -239 -66 -275 -75 -111 -26 -147 -67 -116 -131
24 -50 49 -50 196 -5 l130 40 0 -148 0 -148 -64 5 c-57 5 -70 3 -110 -21 -80
-47 -109 -140 -63 -206 39 -58 71 -75 142 -75 55 0 70 5 107 31 49 34 83 81
98 133 5 20 10 131 10 248 l0 212 58 16 c103 29 120 36 146 56 36 28 36 80 0
108 -15 12 -32 21 -38 20 -6 0 -105 -27 -221 -60z"/>
<path d="M3730 5330 c0 -5 -10 -10 -22 -10 -17 0 -19 -3 -10 -12 10 -10 17 -7
34 10 12 12 17 22 10 22 -6 0 -12 -4 -12 -10z"/>
<path d="M3765 5330 c3 -5 11 -10 16 -10 6 0 7 5 4 10 -3 6 -11 10 -16 10 -6
0 -7 -4 -4 -10z"/>
<path d="M3660 5311 c0 -7 -5 -9 -12 -5 -7 5 -8 3 -3 -6 6 -10 4 -12 -8 -7
-18 7 -33 -24 -22 -45 4 -7 -3 -2 -14 12 -12 14 -21 21 -20 15 3 -22 -2 -25
-20 -15 -14 7 -20 7 -23 -2 -3 -8 -10 -7 -27 2 -21 11 -23 10 -17 -5 6 -15 4
-16 -10 -5 -13 12 -17 11 -25 -1 -6 -10 -9 -10 -9 -1 0 6 -5 12 -11 12 -6 0
-9 -6 -6 -13 3 -8 1 -20 -4 -28 -8 -12 -10 -12 -8 1 3 29 -3 75 -8 62 -7 -17
-52 -36 -80 -33 -17 2 -21 -2 -17 -13 3 -9 1 -16 -5 -16 -6 0 -10 3 -9 8 2 13
-14 42 -25 42 -6 0 -20 8 -31 18 -20 16 -20 16 -7 0 12 -16 11 -18 -17 -18
-19 0 -32 -6 -37 -17 -7 -17 -8 -16 -15 2 -5 13 -3 24 7 32 8 6 10 14 5 17 -6
3 -12 -1 -16 -9 -3 -8 -14 -15 -24 -15 -10 0 -22 -3 -26 -7 -4 -5 -13 -8 -19
-8 -42 0 11 -133 81 -203 185 -186 502 -117 585 128 22 66 25 112 7 117 -13 4
-13 3 0 -6 13 -9 13 -11 -2 -11 -9 0 -18 4 -20 10 -1 5 -14 1 -28 -10 -14 -10
-21 -22 -17 -27 5 -4 14 0 21 10 15 19 26 22 26 7 0 -18 -40 -32 -56 -20 -7 7
-11 16 -8 21 3 5 0 9 -5 9 -6 0 -11 -11 -11 -24 0 -19 -4 -23 -19 -19 -20 5
-38 33 -22 33 5 0 11 -6 14 -12 3 -7 10 0 16 16 6 16 9 31 6 34 -3 3 -5 0 -5
-7z m-500 -62 c0 -5 -4 -9 -10 -9 -5 0 -10 7 -10 16 0 8 5 12 10 9 6 -3 10
-10 10 -16z m60 8 c0 -2 -10 -12 -21 -23 -22 -19 -22 -19 -8 4 12 19 29 30 29
19z m54 -6 c4 -5 -3 -7 -14 -4 -23 6 -26 13 -6 13 8 0 17 -4 20 -9z m131 -24
c0 -20 -3 -21 -22 -13 -12 6 -19 14 -16 18 2 5 9 6 14 3 5 -4 9 -1 9 4 0 6 3
11 8 11 4 0 7 -10 7 -23z m106 -10 c-10 -9 -11 -8 -5 6 3 10 9 15 12 12 3 -3
0 -11 -7 -18z m69 13 c0 -5 -2 -10 -4 -10 -3 0 -8 5 -11 10 -3 6 -1 10 4 10 6
0 11 -4 11 -10z m-445 -10 c-3 -5 -12 -10 -18 -10 -7 0 -6 4 3 10 19 12 23 12
15 0z m152 -12 c-3 -8 -6 -5 -6 6 -1 11 2 17 5 13 3 -3 4 -12 1 -19z"/>
<path d="M3535 5299 c-4 -6 -5 -12 -2 -15 2 -3 7 2 10 11 7 17 1 20 -8 4z"/>
<path d="M3070 5285 c0 -8 4 -15 9 -15 5 0 11 7 15 15 3 9 0 15 -9 15 -8 0
-15 -7 -15 -15z"/>
<path d="M3490 5296 c0 -2 7 -9 15 -16 9 -7 15 -8 15 -2 0 5 -7 12 -15 16 -8
3 -15 4 -15 2z"/>
<path d="M3278 5283 c7 -3 16 -2 19 1 4 3 -2 6 -13 5 -11 0 -14 -3 -6 -6z"/>
<path d="M1634 5261 c-18 -11 -45 -36 -60 -57 -27 -35 -29 -43 -36 -178 -3
-78 -7 -148 -7 -156 -1 -9 -25 -30 -54 -47 -67 -40 -142 -120 -170 -181 -16
-36 -22 -66 -22 -127 0 -70 4 -87 30 -134 35 -62 96 -113 166 -136 l49 -17 0
-93 c0 -83 -3 -97 -22 -119 -13 -15 -37 -29 -54 -32 -35 -7 -48 3 -87 66 -28
44 -59 49 -92 16 -49 -49 -25 -127 53 -177 63 -40 145 -41 217 -1 72 39 92 85
101 229 l7 111 35 7 c80 15 157 78 188 151 20 48 17 151 -5 199 -27 60 -90
112 -161 132 -59 16 -60 17 -60 52 0 30 6 40 35 60 59 40 140 134 153 178 26
88 8 175 -49 235 -31 33 -42 38 -80 38 -26 0 -57 -8 -75 -19z m85 -114 c18
-23 24 -73 11 -98 -15 -29 -61 -79 -72 -79 -12 0 -10 148 2 171 12 22 43 25
59 6z m-194 -785 c-11 -11 -70 29 -94 64 -29 42 -39 121 -21 164 7 17 36 51
64 77 l51 46 3 -173 c1 -95 0 -175 -3 -178z m215 202 c31 -30 35 -41 35 -83 0
-39 -5 -55 -25 -76 -21 -23 -76 -55 -95 -55 -8 0 -6 246 2 253 12 13 47 -4 83
-39z"/>
<path d="M3351 5271 c-8 -5 -9 -11 -3 -15 5 -3 12 1 16 9 6 17 6 18 -13 6z"/>
<path d="M2866 5015 c4 -8 11 -15 16 -15 6 0 5 6 -2 15 -7 8 -14 15 -16 15 -2
0 -1 -7 2 -15z"/>
<path d="M5125 5000 c10 -11 20 -20 23 -20 3 0 -3 9 -13 20 -10 11 -20 20 -23
20 -3 0 3 -9 13 -20z"/>
<path d="M2766 4993 c-6 -14 -5 -15 5 -6 7 7 10 15 7 18 -3 3 -9 -2 -12 -12z"/>
<path d="M4994 4988 l-19 -23 23 19 c12 11 22 21 22 23 0 8 -8 2 -26 -19z"/>
<path d="M4883 4963 c-23 -9 -15 -52 10 -57 12 -3 35 -7 50 -11 20 -4 27 -2
22 6 -4 6 -1 15 6 20 7 4 10 12 5 16 -4 4 -13 0 -20 -10 -7 -9 -19 -17 -27
-17 -12 0 -12 2 -1 9 11 7 11 9 -2 14 -26 10 -19 30 9 25 14 -3 28 -1 31 3 5
9 -62 11 -83 2z m8 -26 c-10 -9 -11 -8 -5 6 3 10 9 15 12 12 3 -3 0 -11 -7
-18z"/>
<path d="M5178 4959 c13 -5 29 -6 34 -2 7 3 8 1 4 -5 -5 -8 -2 -10 8 -6 9 4
16 1 16 -6 0 -7 -8 -10 -20 -7 -11 3 -30 -3 -44 -14 -13 -10 -38 -19 -54 -19
-17 0 -33 -4 -36 -8 -3 -5 -26 -6 -51 -2 -30 4 -48 3 -52 -4 -3 -6 -2 -8 2 -3
12 11 56 -84 50 -109 -2 -11 2 -29 9 -40 11 -15 16 -16 29 -5 9 7 15 25 15 41
-1 38 33 102 63 117 13 7 38 13 56 13 23 0 33 6 38 20 10 30 -12 50 -54 49
-33 0 -34 -1 -13 -10z m-78 -89 c-6 -11 -13 -20 -16 -20 -2 0 0 9 6 20 6 11
13 20 16 20 2 0 0 -9 -6 -20z"/>
<path d="M5353 4708 c-6 -7 -13 -40 -17 -73 -9 -89 -48 -388 -52 -403 -3 -9
-11 -7 -32 8 -41 30 -98 41 -152 29 -163 -36 -223 -226 -111 -353 65 -74 241
-76 319 -3 60 55 86 159 127 510 4 31 11 57 15 57 18 0 100 -101 110 -137 10
-32 9 -46 -4 -77 -23 -55 -20 -83 9 -102 33 -22 67 -8 91 38 23 44 31 167 14
210 -24 61 -80 126 -144 169 -36 24 -67 53 -70 65 -15 57 -78 94 -103 62z"/>
<path d="M1483 3746 c-71 -32 -96 -137 -48 -194 53 -63 128 -66 190 -8 34 32
40 51 35 106 -3 34 -26 77 -49 89 -34 19 -95 22 -128 7z"/>
<path d="M860 3420 c0 -5 5 -10 10 -10 6 0 10 5 10 10 0 6 -4 10 -10 10 -5 0
-10 -4 -10 -10z"/>
<path d="M3086 3264 c-10 -25 -1 -27 19 -4 15 17 16 20 3 20 -9 0 -19 -7 -22
-16z"/>
<path d="M3215 3250 c7 -12 -12 -40 -26 -40 -5 0 -9 7 -9 15 0 8 -4 15 -10 15
-14 0 -12 -11 6 -31 15 -16 17 -16 35 -1 20 18 26 52 8 52 -5 0 -7 -5 -4 -10z"/>
<path d="M3342 3247 c-8 -9 -8 -17 0 -27 8 -12 9 -12 4 2 -3 10 2 22 12 27 9
6 12 11 6 11 -6 0 -16 -6 -22 -13z"/>
<path d="M3379 3245 c-1 -5 -1 -14 0 -19 1 -5 -2 -12 -8 -15 -6 -4 -7 -12 -1
-21 8 -13 10 -12 10 3 0 9 4 17 8 17 17 0 21 -13 10 -33 -9 -17 -8 -19 6 -14
10 4 15 3 12 -2 -3 -5 0 -13 7 -19 8 -6 18 -3 32 11 11 11 14 17 8 13 -14 -8
-60 36 -74 69 -4 11 -9 16 -10 10z"/>
<path d="M3100 3225 c-13 -16 -10 -47 5 -52 6 -1 10 13 11 32 1 40 1 40 -16
20z"/>
<path d="M3570 3226 c0 -2 7 -6 15 -10 8 -3 15 -1 15 4 0 6 -7 10 -15 10 -8 0
-15 -2 -15 -4z"/>
<path d="M3613 3210 c-11 -16 -10 -18 1 -14 15 6 30 34 18 34 -4 0 -13 -9 -19
-20z"/>
<path d="M3260 3209 c0 -5 5 -7 10 -4 6 3 10 8 10 11 0 2 -4 4 -10 4 -5 0 -10
-5 -10 -11z"/>
<path d="M3138 3203 c7 -3 16 -2 19 1 4 3 -2 6 -13 5 -11 0 -14 -3 -6 -6z"/>
<path d="M3185 3150 c3 -5 8 -10 11 -10 2 0 4 5 4 10 0 6 -5 10 -11 10 -5 0
-7 -4 -4 -10z"/>
<path d="M2223 2893 c9 -2 25 -2 35 0 9 3 1 5 -18 5 -19 0 -27 -2 -17 -5z"/>
<path d="M2288 2853 c7 -3 16 -2 19 1 4 3 -2 6 -13 5 -11 0 -14 -3 -6 -6z"/>
<path d="M3870 2850 c-9 -6 -10 -10 -3 -10 6 0 15 5 18 10 8 12 4 12 -15 0z"/>
<path d="M867 3295 c3 -8 9 -12 14 -9 12 7 11 11 -5 17 -10 4 -13 1 -9 -8z"/>
<path d="M806 3255 c25 -19 40 -19 24 0 -7 8 -20 15 -28 15 -13 0 -12 -3 4
-15z"/>
<path d="M1300 3190 c-13 -8 -12 -10 3 -10 9 0 17 5 17 10 0 12 -1 12 -20 0z"/>
<path d="M1331 3184 c0 -11 3 -14 6 -6 3 7 2 16 -1 19 -3 4 -6 -2 -5 -13z"/>
<path d="M1607 3134 c3 -7 9 -14 14 -14 14 0 10 17 -5 23 -10 4 -13 1 -9 -9z"/>
<path d="M1560 3120 c-8 -5 -8 -9 2 -12 16 -6 38 1 38 11 0 10 -26 10 -40 1z"/>
<path d="M1426 3094 c-11 -7 -16 -17 -12 -21 4 -4 11 -1 15 6 6 9 17 11 32 6
13 -4 22 -6 19 -3 -31 25 -36 26 -54 12z"/>
<path d="M6046 3295 c-4 -10 1 -15 16 -15 17 0 18 2 8 15 -7 8 -14 15 -15 15
-2 0 -5 -7 -9 -15z"/>
<path d="M5665 3250 c-3 -5 -1 -10 4 -10 6 0 11 5 11 10 0 6 -2 10 -4 10 -3 0
-8 -4 -11 -10z"/>
<path d="M5798 3253 c7 -3 16 -2 19 1 4 3 -2 6 -13 5 -11 0 -14 -3 -6 -6z"/>
<path d="M5696 3223 c-6 -14 -5 -15 5 -6 7 7 10 15 7 18 -3 3 -9 -2 -12 -12z"/>
<path d="M4863 3205 c-7 -8 -9 -16 -4 -19 5 -3 12 1 15 10 8 22 4 25 -11 9z"/>
<path d="M5190 3215 c0 -5 5 -17 10 -25 5 -8 10 -10 10 -5 0 6 -5 17 -10 25
-5 8 -10 11 -10 5z"/>
<path d="M4777 3127 c-3 -8 1 -14 9 -14 8 0 14 6 14 14 0 7 -4 13 -9 13 -5 0
-11 -6 -14 -13z"/>
<path d="M4905 2770 c3 -5 8 -10 11 -10 2 0 4 5 4 10 0 6 -5 10 -11 10 -5 0
-7 -4 -4 -10z"/>
<path d="M5795 3170 c3 -5 8 -10 11 -10 2 0 4 5 4 10 0 6 -5 10 -11 10 -5 0
-7 -4 -4 -10z"/>
<path d="M1340 2880 c0 -5 18 -10 39 -10 22 0 43 5 46 10 4 6 -12 10 -39 10
-25 0 -46 -4 -46 -10z"/>
<path d="M2230 2375 c0 -8 4 -15 8 -15 5 0 9 7 9 15 0 8 -4 15 -9 15 -4 0 -8
-7 -8 -15z"/>
<path d="M2196 2323 c-6 -14 -5 -15 5 -6 7 7 10 15 7 18 -3 3 -9 -2 -12 -12z"/>
<path d="M212 3474 c-16 -19 -18 -25 -6 -20 12 4 15 2 11 -9 -4 -8 -1 -17 5
-21 7 -4 8 -3 4 4 -4 7 -2 12 5 12 10 0 10 3 1 12 -7 7 -8 17 -1 30 13 25 8
22 -19 -8z"/>
<path d="M245 3470 c-3 -5 -2 -10 4 -10 5 0 13 5 16 10 3 6 2 10 -4 10 -5 0
-13 -4 -16 -10z"/>
<path d="M90 3421 c0 -6 4 -13 10 -16 6 -3 7 1 4 9 -7 18 -14 21 -14 7z"/>
<path d="M6601 3414 c0 -11 3 -14 6 -6 3 7 2 16 -1 19 -3 4 -6 -2 -5 -13z"/>
<path d="M140 3381 c0 -6 4 -13 10 -16 6 -3 7 1 4 9 -7 18 -14 21 -14 7z"/>
<path d="M6645 3380 c-3 -5 -1 -11 5 -15 6 -4 7 -11 4 -17 -4 -7 -9 -6 -14 2
-5 8 -9 7 -13 -4 -4 -9 -1 -16 6 -16 21 0 40 17 33 29 -4 6 0 11 10 11 10 0
14 3 10 7 -10 11 -35 12 -41 3z"/>
<path d="M6735 3370 c-3 -6 1 -7 9 -4 18 7 21 14 7 14 -6 0 -13 -4 -16 -10z"/>
<path d="M6600 3360 c-9 -6 -10 -10 -3 -10 6 0 15 5 18 10 8 12 4 12 -15 0z"/>
<path d="M6687 3332 c3 -8 0 -10 -10 -6 -8 3 -17 1 -20 -3 -9 -15 31 -12 43 2
9 11 17 12 32 4 10 -6 24 -8 31 -5 7 2 4 5 -6 5 -10 1 -16 4 -14 9 3 4 -10 7
-28 7 -22 0 -31 -4 -28 -13z"/>
<path d="M6800 3340 c-13 -8 -12 -10 3 -10 9 0 17 5 17 10 0 12 -1 12 -20 0z"/>
<path d="M130 3317 c0 -4 7 -21 15 -36 8 -16 12 -31 10 -35 -3 -3 -2 -4 2 -1
3 3 12 0 19 -6 16 -13 28 6 30 47 0 24 -3 30 -18 29 -11 -1 -23 -7 -28 -14 -6
-10 -10 -9 -19 5 -6 11 -11 15 -11 11z m54 -28 c-3 -6 0 -15 7 -20 10 -6 7 -8
-9 -6 -21 1 -29 17 -15 30 11 11 25 8 17 -4z"/>
<path d="M6775 3310 c-3 -5 2 -10 12 -10 15 0 16 -2 3 -10 -9 -6 -10 -10 -3
-10 19 0 24 17 9 29 -10 8 -16 9 -21 1z"/>
<path d="M85 3300 c-3 -6 1 -13 10 -16 21 -9 26 -2 10 13 -9 8 -16 9 -20 3z"/>
<path d="M6683 3300 c-13 -5 -23 -12 -23 -15 0 -8 33 -1 55 13 24 14 2 15 -32
2z"/>
<path d="M6714 3279 c-27 -18 -28 -19 -6 -19 12 0 22 5 22 10 0 6 5 10 11 10
5 0 7 -4 4 -10 -3 -6 4 -10 17 -9 13 0 17 3 10 6 -6 2 -10 8 -7 13 11 18 -24
17 -51 -1z"/>
<path d="M6636 3273 c-11 -11 -6 -23 9 -23 8 0 15 4 15 9 0 13 -16 22 -24 14z"/>
<path d="M6770 3235 c0 -8 4 -15 10 -15 5 0 7 7 4 15 -4 8 -8 15 -10 15 -2 0
-4 -7 -4 -15z"/>
<path d="M6800 3230 c0 -5 5 -10 11 -10 5 0 7 5 4 10 -3 6 -8 10 -11 10 -2 0
-4 -4 -4 -10z"/>
</g>
</svg>
